<?xml version="1.0" encoding="UTF-8"?>
<svg id="Layer_2" data-name="Layer 2" xmlns="http://www.w3.org/2000/svg" xmlns:xlink="http://www.w3.org/1999/xlink" viewBox="0 0 18.56 26">
  <defs>
    <style>
      .cls-1 {
        fill: url(#linear-gradient-2);
      }

      .cls-2 {
        fill: #fff;
      }

      .cls-3 {
        isolation: isolate;
        opacity: .05;
      }

      .cls-4 {
        fill: url(#linear-gradient-3);
      }

      .cls-5 {
        fill: url(#linear-gradient);
      }

      .cls-6 {
        fill: url(#linear-gradient-4);
      }

      .cls-7 {
        fill: #3c9cd7;
      }

      .cls-8 {
        fill: #2062af;
      }
    </style>
    <linearGradient id="linear-gradient" x1="-1047.16" y1="40.61" x2="-1047.16" y2="37.6" gradientTransform="translate(1562 -44.49) scale(1.49)" gradientUnits="userSpaceOnUse">
      <stop offset=".39" stop-color="#d1d3d4" stop-opacity="0"/>
      <stop offset="1" stop-color="#d1d3d4"/>
    </linearGradient>
    <linearGradient id="linear-gradient-2" x1="-1043.4" y1="39.11" x2="-1043.4" y2="35.98" xlink:href="#linear-gradient"/>
    <linearGradient id="linear-gradient-3" x1="-1048.97" y1="41.95" x2="-1041.74" y2="41.95" gradientTransform="translate(1562 -44.49) scale(1.49)" gradientUnits="userSpaceOnUse">
      <stop offset="0" stop-color="#e8e7e5"/>
      <stop offset="1" stop-color="#fff"/>
    </linearGradient>
    <linearGradient id="linear-gradient-4" x1="-1049.3" y1="36.74" x2="-1041.45" y2="36.74" xlink:href="#linear-gradient-3"/>
  </defs>
  <g id="aboutme">
    <g>
      <path class="cls-8" d="M16.82,23.97l-7.54,2.03-7.54-2.03L0,5.12H18.56l-1.74,18.85Z"/>
      <path class="cls-7" d="M9.28,6.65V24.38h.02s6.1-1.64,6.1-1.64l1.41-16.1h-7.53Z"/>
      <path d="M5,2.35V1.23h1.64V0H3.77V3.47h2.86v-1.12h-1.64Zm4.58-1.12h1.14V0h-2.86V1.23c.38,.38,.58,.57,1.14,1.12-.32,0-1.14,0-1.14,0v1.12h2.86v-1.12l-1.14-1.12h0Zm4.06,0h1.14V0h-2.87V1.23c.38,.38,.58,.57,1.14,1.12-.32,0-1.14,0-1.14,0v1.12h2.87v-1.12l-1.14-1.12h0Z"/>
      <path class="cls-2" d="M9.27,11.36l-5.4,2.25,.18,2.23,5.22-2.23,5.55-2.37,.23-2.28-5.78,2.41h0Z"/>
      <path class="cls-5" d="M3.88,13.61l.18,2.23,5.22-2.23v-2.24l-5.4,2.25Z"/>
      <path class="cls-1" d="M15.05,8.95l-5.78,2.41v2.24l5.55-2.37,.23-2.28Z"/>
      <path class="cls-4" d="M3.89,13.61l.18,2.23,8.01,.03-.18,2.97-2.63,.74-2.53-.64-.15-1.84h-2.35l.31,3.56,4.76,1.41,4.73-1.38,.61-7.06H3.89Z"/>
      <path class="cls-3" d="M9.27,13.61H3.88l.18,2.23,5.22,.02v-2.24h0Zm0,5.95h-.03s-2.53-.63-2.53-.63l-.15-1.84h-2.35l.31,3.56,4.76,1.41v-2.49Z"/>
      <path class="cls-6" d="M3.39,8.95H15.05l-.23,2.28H3.67l-.28-2.28h0Z"/>
      <path class="cls-3" d="M9.27,8.95H3.39l.28,2.28h5.6v-2.28h0Z"/>
    </g>
  </g>
</svg>