<?xml version="1.0" encoding="UTF-8"?>
<svg id="Layer_2" data-name="Layer 2" xmlns="http://www.w3.org/2000/svg" viewBox="0 0 26 26">
  <g id="pop_up" data-name="pop up">
    <g>
      <path d="M13.74,19.01c-.19,.21-.46,.33-.74,.33s-.55-.12-.74-.33l-5.33-5.83c-.37-.41-.34-1.04,.06-1.41,.41-.37,1.04-.34,1.41,.06l3.6,3.93V1c0-.55,.45-1,1-1s1,.45,1,1V15.76l3.6-3.93c.37-.41,1.01-.44,1.41-.06s.44,1.01,.06,1.41l-5.33,5.83Z"/>
      <path d="M2,17c0-.55-.45-1-1-1S0,16.45,0,17v.07c0,1.82,0,3.29,.16,4.45,.16,1.2,.51,2.21,1.31,3.01,.8,.8,1.81,1.15,3.01,1.31,1.16,.16,2.63,.16,4.45,.16h8.15c1.82,0,3.29,0,4.45-.16,1.2-.16,2.21-.51,3.01-1.31s1.15-1.81,1.31-3.01c.16-1.16,.16-2.63,.16-4.45v-.07c0-.55-.45-1-1-1s-1,.45-1,1c0,1.91,0,3.25-.14,4.26-.13,.98-.37,1.5-.74,1.87s-.89,.61-1.87,.74c-1.01,.14-2.34,.14-4.26,.14H9c-1.91,0-3.25,0-4.26-.14-.98-.13-1.5-.37-1.87-.74s-.61-.89-.74-1.87c-.14-1.01-.14-2.34-.14-4.26Z"/>
    </g>
  </g>
</svg>