<?xml version="1.0" encoding="UTF-8"?>
<svg id="Layer_2" data-name="Layer 2" xmlns="http://www.w3.org/2000/svg" viewBox="0 0 26 26">
  <defs>
    <style>
      .cls-1 {
        fill: #f7df1e;
      }
    </style>
  </defs>
  <g id="aboutme">
    <g>
      <path class="cls-1" d="M0,0H26V26H0V0Z"/>
      <path d="M6.84,21.73l1.99-1.2c.38,.68,.73,1.26,1.57,1.26s1.31-.31,1.31-1.54V11.94h2.44v8.34c0,2.53-1.48,3.68-3.65,3.68-1.95,0-3.09-1.01-3.67-2.23m8.64-.26l1.99-1.15c.52,.86,1.2,1.48,2.41,1.48,1.01,0,1.66-.51,1.66-1.2,0-.84-.66-1.13-1.78-1.62l-.61-.26c-1.76-.75-2.93-1.69-2.93-3.68,0-1.83,1.4-3.23,3.58-3.23,1.55,0,2.67,.54,3.47,1.95l-1.9,1.22c-.42-.75-.87-1.05-1.57-1.05s-1.17,.45-1.17,1.05c0,.73,.45,1.03,1.5,1.48l.61,.26c2.08,.89,3.25,1.8,3.25,3.84,0,2.2-1.73,3.4-4.05,3.4s-3.73-1.08-4.45-2.5"/>
    </g>
  </g>
</svg>