<?xml version="1.0" encoding="UTF-8"?>
<svg id="Layer_2" data-name="Layer 2" xmlns="http://www.w3.org/2000/svg" viewBox="0 0 26.24 26">
  <defs>
    <style>
      .cls-1 {
        fill: #21609b;
        fill-rule: evenodd;
      }
    </style>
  </defs>
  <g id="aboutme">
    <g>
      <path class="cls-1" d="M25.63,19.3l-.12,.3c-2,3.9-5.55,6.29-10.61,6.39-2.36,.05-4.62-.56-6.09-1.22-3.18-1.43-5.85-4.07-7.31-6.9C-.58,13.82-.96,8.18,3.39,3.97c.07,0-.53,.91-.46,.91l-.12,.39C-.33,15.09,9.34,23.51,18.73,22.55c2.26-.23,5.14-1.47,6.9-3.25"/>
      <path class="cls-1" d="M19.95,15.24c2.36,.02,4.83-1.09,6.29-2.64-1.28,3.25-4.98,5.33-9.95,4.67-4.16-.56-8.12-4.74-8.53-8.93-.3-3.05,.76-4.87,2.52-7.08-.61,1.16-.84,2.05-.89,2.61-.67,6.6,5.27,11.33,10.56,11.37"/>
      <path class="cls-1" d="M26,7.04c-.37,.84-2.48,2.43-3.42,2.63-3.7,.79-6.07-.97-7.31-2.96-.18-.3-.53-1.11-.59-1.32-.48-1.64-.26-4.11,1.18-5.39-.43,1.22-.5,2.63-.27,3.55,.14,.56,.56,1.53,.98,2.14,.76,1.11,1.25,1.38,2.23,1.97,.44,.27,.92,.48,1.12,.54,.93,.27,2.9,1,6.07-1.16"/>
    </g>
  </g>
</svg>