<?xml version="1.0" encoding="UTF-8"?>
<svg id="Layer_2" data-name="Layer 2" xmlns="http://www.w3.org/2000/svg" viewBox="0 0 42 32.67">
  <defs>
    <style>
      .cls-1 {
        fill: #fff;
      }
    </style>
  </defs>
  <g id="_헤더_히어로섹션" data-name="헤더+히어로섹션">
    <g>
      <path class="cls-1" d="M38.11,32.67H3.89c-2.15,0-3.89-1.74-3.89-3.89s1.74-3.89,3.89-3.89H38.11c2.15,0,3.89,1.74,3.89,3.89s-1.74,3.89-3.89,3.89Z"/>
      <path class="cls-1" d="M38.11,20.22H3.89c-2.15,0-3.89-1.74-3.89-3.89s1.74-3.89,3.89-3.89H38.11c2.15,0,3.89,1.74,3.89,3.89s-1.74,3.89-3.89,3.89Z"/>
      <path class="cls-1" d="M38.11,7.78H3.89C1.74,7.78,0,6.04,0,3.89S1.74,0,3.89,0H38.11c2.15,0,3.89,1.74,3.89,3.89s-1.74,3.89-3.89,3.89Z"/>
    </g>
  </g>
</svg>