<?xml version="1.0" encoding="UTF-8"?>
<svg id="Layer_2" data-name="Layer 2" xmlns="http://www.w3.org/2000/svg" viewBox="0 0 27.08 21.06">
  <defs>
    <style>
      .cls-1 {
        fill: #ffc13b;
      }
    </style>
  </defs>
  <g id="mobile_header">
    <g>
      <path class="cls-1" d="M24.57,21.06H2.51c-1.39,0-2.51-1.12-2.51-2.51s1.12-2.51,2.51-2.51H24.57c1.39,0,2.51,1.12,2.51,2.51s-1.12,2.51-2.51,2.51Z"/>
      <path class="cls-1" d="M24.57,13.04H2.51c-1.39,0-2.51-1.12-2.51-2.51s1.12-2.51,2.51-2.51H24.57c1.39,0,2.51,1.12,2.51,2.51s-1.12,2.51-2.51,2.51Z"/>
      <path class="cls-1" d="M24.57,5.02H2.51C1.12,5.02,0,3.89,0,2.51S1.12,0,2.51,0H24.57c1.39,0,2.51,1.12,2.51,2.51s-1.12,2.51-2.51,2.51Z"/>
    </g>
  </g>
</svg>