<svg width="100" height="100" viewBox="0 0 100 100" fill="none" xmlns="http://www.w3.org/2000/svg">
<g clip-path="url(#clip0_240_2823)">
<path d="M50 87.4576C70.6873 87.4576 87.4576 70.6873 87.4576 50C87.4576 29.3128 70.6873 12.5425 50 12.5425C29.3128 12.5425 12.5425 29.3128 12.5425 50C12.5425 70.6873 29.3128 87.4576 50 87.4576Z" fill="white"/>
<path d="M50.0001 87.7082C29.2083 87.7082 12.292 70.7919 12.292 50.0001C12.292 29.2083 29.2083 12.292 50.0001 12.292C70.7919 12.292 87.7082 29.2083 87.7082 50.0001C87.7082 70.7919 70.7919 87.7082 50.0001 87.7082ZM50.0001 12.7931C29.4839 12.7931 12.7931 29.4839 12.7931 50.0001C12.7931 70.5163 29.4839 87.2071 50.0001 87.2071C70.5163 87.2071 87.2071 70.5163 87.2071 50.0001C87.2071 29.4839 70.5163 12.7931 50.0001 12.7931Z" fill="#231F20"/>
<path d="M50 84.3335C68.962 84.3335 84.3338 68.9618 84.3338 49.9998C84.3338 31.0378 68.962 15.666 50 15.666C31.038 15.666 15.6663 31.0378 15.6663 49.9998C15.6663 68.9618 31.038 84.3335 50 84.3335Z" fill="#F9B200"/>
<path d="M35.9289 64.5022C34.8375 64.5022 33.7824 64.2293 32.7662 63.6837C31.75 63.138 30.9509 62.3946 30.369 61.4536C29.7176 60.3149 29.2971 59.0732 29.105 57.7256C28.9129 56.3781 28.8071 55.0585 28.7821 53.7694C28.7709 53.4325 28.7654 53.1012 28.7654 52.7755C28.7654 51.6952 28.8183 50.615 28.9213 49.5348C28.4452 47.3854 27.3928 45.5395 25.7669 43.9944C25.2546 44.9827 24.7562 45.9739 24.269 46.9734C23.573 48.3682 22.8992 49.7686 22.2478 51.1718C21.8524 52.021 21.4571 52.8618 21.0617 53.697C20.8279 54.2316 20.4938 54.6798 20.0511 55.039C19.4943 55.4454 18.918 55.6487 18.3249 55.6487C17.64 55.6487 16.9886 55.4343 16.3733 55.0028C15.758 54.574 15.2986 54.02 14.9979 53.3462C14.9506 53.2543 14.9283 53.1541 14.9283 53.0511V52.9982C14.9283 52.8005 15.0341 52.614 15.2429 52.4414C15.6967 52.1156 16.1088 51.7231 16.4791 51.2665C16.8493 50.8071 17.2001 50.3449 17.5231 49.88C18.3249 48.7301 19.0906 47.5441 19.8228 46.3247C20.7415 44.8157 21.652 43.2928 22.5596 41.7587C21.1313 41.0738 19.6724 40.7314 18.1857 40.7314C17.6512 40.7314 17.1222 40.7843 16.5988 40.8873C15.1594 41.1657 14.0541 41.9341 13.2885 43.187C13.1493 43.432 13.0212 43.7271 12.9043 44.0751C12.7873 44.4231 12.7289 44.76 12.7289 45.0857C12.7289 45.3419 12.7706 45.573 12.8514 45.7818C12.9683 45.9683 13.1186 46.0741 13.3052 46.1047C13.4917 46.1326 13.6532 46.2356 13.7924 46.411C13.8509 46.5279 13.8787 46.6504 13.8787 46.7757C13.8787 46.9372 13.8397 47.1042 13.7645 47.2713C13.6894 47.4411 13.6114 47.5887 13.5279 47.7167C13.2383 48.1705 12.8625 48.5213 12.4031 48.7719C11.9437 49.0225 11.4537 49.1812 10.9303 49.2508C10.6519 49.287 10.3735 49.3037 10.0951 49.3037C9.10671 49.3037 8.19352 49.0559 7.34994 48.5631C6.50635 48.0703 5.90776 47.3242 5.54583 46.3247C5.39548 45.8597 5.32031 45.3948 5.32031 44.9298C5.32031 44.0361 5.53191 43.1647 5.95509 42.3155C6.37828 41.4664 6.91004 40.7369 7.55039 40.1189C8.45523 39.2836 9.49649 38.6628 10.6686 38.2619C11.8407 37.8609 13.0323 37.5909 14.2406 37.4517C15.0536 37.3598 15.8666 37.3125 16.6795 37.3125C18.4224 37.3125 20.129 37.5909 21.8023 38.1477C22.593 38.4261 23.3531 38.7686 24.0853 39.1751C24.4333 38.5932 24.7813 38.0196 25.1321 37.4489C25.9673 36.054 26.8499 34.701 27.7798 33.3896C28.4062 32.4598 29.1273 31.6078 29.9403 30.8283C31.0678 29.865 32.3263 29.3833 33.7211 29.3833C34.1387 29.3833 34.5619 29.4251 34.9935 29.5058C35.2245 29.542 35.4974 29.6088 35.812 29.7063C36.1266 29.8037 36.4078 29.9401 36.6584 30.1155C36.9089 30.2909 37.0342 30.5164 37.0342 30.7948C37.0342 30.9118 37.0064 31.0399 36.9479 31.1791C36.7502 31.5382 36.5526 31.9001 36.3549 32.2593C35.7869 33.6068 35.3164 35.0239 34.9433 36.5106C34.5007 38.195 34.1415 39.9045 33.8631 41.6418C33.5847 43.3791 33.4455 45.1191 33.4455 46.8592C33.4455 47.5803 33.4733 48.307 33.5318 49.0364C33.5903 49.9774 33.7323 50.9101 33.9578 51.8317C34.1833 52.756 34.5285 53.6302 34.9935 54.4543C35.6199 55.5457 36.4217 56.4923 37.3989 57.2941C37.7831 57.631 38.2091 57.9233 38.6796 58.1739C39.1501 58.4244 39.6402 58.5497 40.1524 58.5497L40.3779 58.533C40.5645 58.533 40.712 58.6026 40.8234 58.7418C40.9348 58.881 40.9932 59.037 41.0072 59.2124C41.0183 59.3182 41.0239 59.4267 41.0239 59.5437C41.0239 60.7158 40.6591 61.7543 39.9269 62.6535C39.1947 63.5528 38.2314 64.1319 37.0342 64.388C36.6611 64.4576 36.2909 64.4938 35.9178 64.4938L35.9289 64.5022ZM29.5867 44.515C29.9013 42.5856 30.2549 40.6701 30.6502 38.7658C30.9064 37.5575 31.1736 36.3492 31.4521 35.1409C31.4743 35.0713 31.5105 34.971 31.5579 34.8374C31.6052 34.7038 31.6275 34.5952 31.6275 34.5144V34.4615H31.5913C31.5913 34.4615 31.5634 34.4671 31.5384 34.4782C31.143 34.6063 30.8535 34.8569 30.6669 35.2272C29.4224 37.2484 28.2448 39.3059 27.1283 41.3968C27.5348 41.781 27.919 42.1875 28.2782 42.6162C28.7765 43.2204 29.2136 43.8524 29.5839 44.515H29.5867Z" fill="black"/>
<path d="M48.6997 54.5156C47.8867 54.5156 47.1295 54.3152 46.4251 53.9143C45.7235 53.5134 45.2029 52.9176 44.866 52.1269C44.6572 51.6146 44.5068 51.0689 44.4122 50.4898C44.3203 49.9079 44.273 49.3233 44.273 48.7302C44.273 48.4156 44.2841 48.1094 44.3092 47.8059V46.6728C44.3092 46.4751 44.3732 46.322 44.5013 46.2106C44.6293 46.0993 44.7852 46.0324 44.9718 46.0102C45.1917 45.9879 45.3671 45.974 45.4952 45.974C45.6233 45.974 45.7903 45.935 46.0019 45.8515C46.5365 45.6204 47.0237 45.2835 47.4663 44.8408C47.909 44.3982 48.2849 43.9416 48.5995 43.4655C48.7498 43.2455 48.9197 42.9059 49.1062 42.4465C49.2927 41.9871 49.3846 41.5667 49.3846 41.1825C49.3846 40.9152 49.3234 40.7092 49.2009 40.5644C49.0784 40.4197 48.8779 40.3473 48.5995 40.3473C48.1568 40.3473 47.7392 40.4698 47.3438 40.712C46.9485 40.957 46.5893 41.2549 46.2636 41.6085C45.9379 41.9621 45.6539 42.3073 45.4089 42.6442C44.0948 44.5485 43.0841 46.606 42.377 48.8138C42.2016 49.5237 42.0234 50.2921 41.8369 51.1218C41.6503 51.9515 41.5584 52.7617 41.5584 53.5523C41.5584 53.7862 41.4638 53.9672 41.2717 54.1008C41.0796 54.2345 40.8541 54.3319 40.5924 54.3876C40.3306 54.446 40.0884 54.4739 39.8685 54.4739C39.1836 54.4739 38.5377 54.2372 37.9335 53.7584C37.644 53.5273 37.4352 53.26 37.3071 52.9565C37.179 52.6559 37.115 52.3357 37.115 51.9988C37.115 51.8123 37.1317 51.6202 37.1679 51.4225C37.5855 49.2147 38.0867 47.0208 38.6657 44.8353C39.6987 40.7231 40.907 36.6583 42.2907 32.638C42.4299 32.2204 42.583 31.7777 42.7528 31.3128C42.9199 30.8478 43.137 30.4135 43.3988 30.007C43.6605 29.6006 44.0085 29.2693 44.4456 29.0131C44.8799 28.757 45.4423 28.6289 46.1272 28.6289C46.6729 28.6289 47.1879 28.7458 47.6696 28.9769C48.1512 29.208 48.4102 29.6117 48.4464 30.1797C48.4464 30.3885 48.335 30.575 48.115 30.7365H48.0983V30.7532C47.6807 31.5077 47.3077 32.3401 46.9819 33.245C45.9128 36.1377 44.9662 39.0777 44.1421 42.0623C44.6655 41.3189 45.2585 40.6424 45.9184 40.0327C46.581 39.4229 47.2909 38.9329 48.0538 38.5599C48.8139 38.1868 49.5962 38.003 50.398 38.003C51.0245 38.003 51.6147 38.1422 52.1659 38.4207C52.7172 38.6991 53.1794 39.1362 53.5524 39.7264C53.867 40.3083 54.0229 40.9124 54.0229 41.5389C54.0229 42.4437 53.7835 43.3402 53.3074 44.2228C52.8313 45.1053 52.2801 45.8431 51.6509 46.4361C50.4788 47.5526 49.1062 48.2375 47.5387 48.4908C48.3294 49.1061 49.2816 49.4151 50.3952 49.4151C50.9298 49.4151 51.4532 49.3511 51.9627 49.223C53.2044 48.85 54.2345 48.1428 55.0475 47.096C55.8605 46.0491 56.5175 44.9411 57.0159 43.7689C57.1439 43.5239 57.3054 43.4014 57.5031 43.4014C57.6785 43.4014 57.8428 43.4738 57.9987 43.6186C58.1546 43.7634 58.2325 43.9416 58.2325 44.1504C58.2325 44.2422 58.2103 44.3369 58.1629 44.4288C57.7453 45.381 57.2804 46.3053 56.7681 47.199C55.8855 48.8249 54.8387 50.3367 53.6304 51.7287C53.1766 52.241 52.6921 52.706 52.1743 53.1236C51.6564 53.5412 51.1108 53.8753 50.5372 54.1259C49.9609 54.3764 49.3484 54.5017 48.6997 54.5017V54.5156Z" fill="black"/>
<path d="M66.5098 54.5156C65.6968 54.5156 64.9395 54.3152 64.2351 53.9143C63.5335 53.5134 63.0129 52.9176 62.676 52.1269C62.4672 51.6146 62.3169 51.0689 62.2222 50.4898C62.1304 49.9079 62.083 49.3233 62.083 48.7302C62.083 48.4156 62.0942 48.1094 62.1192 47.8059V46.6728C62.1192 46.4751 62.1832 46.322 62.3113 46.2106C62.4394 46.0993 62.5953 46.0324 62.7818 46.0102C63.0018 45.9879 63.1772 45.974 63.3053 45.974C63.4333 45.974 63.6004 45.935 63.812 45.8515C64.3465 45.6204 64.8337 45.2835 65.2764 44.8408C65.7191 44.3982 66.0949 43.9416 66.4095 43.4655C66.5599 43.2455 66.7297 42.9059 66.9163 42.4465C67.1028 41.9871 67.1947 41.5667 67.1947 41.1825C67.1947 40.9152 67.1334 40.7092 67.0109 40.5644C66.8884 40.4197 66.688 40.3473 66.4095 40.3473C65.9669 40.3473 65.5493 40.4698 65.1539 40.712C64.7586 40.957 64.3994 41.2549 64.0737 41.6085C63.7479 41.9621 63.4639 42.3073 63.2189 42.6442C61.9048 44.5485 60.8942 46.606 60.187 48.8138C60.0116 49.5237 59.8335 50.2921 59.6469 51.1218C59.4604 51.9515 59.3685 52.7617 59.3685 53.5523C59.3685 53.7862 59.2738 53.9672 59.0817 54.1008C58.8896 54.2345 58.6641 54.3319 58.4024 54.3876C58.1407 54.446 57.8985 54.4739 57.6785 54.4739C56.9936 54.4739 56.3477 54.2372 55.7436 53.7584C55.454 53.5273 55.2452 53.26 55.1172 52.9565C54.9891 52.6559 54.925 52.3357 54.925 51.9988C54.925 51.8123 54.9418 51.6202 54.9779 51.4225C55.3956 49.2147 55.8967 47.0208 56.4758 44.8353C57.5087 40.7231 58.717 36.6583 60.1007 32.638C60.2399 32.2204 60.3931 31.7777 60.5629 31.3128C60.7299 30.8478 60.9471 30.4135 61.2088 30.007C61.4705 29.6006 61.8185 29.2693 62.2556 29.0131C62.69 28.757 63.2523 28.6289 63.9372 28.6289C64.4829 28.6289 64.998 28.7458 65.4796 28.9769C65.9613 29.208 66.2202 29.6117 66.2564 30.1797C66.2564 30.3885 66.145 30.575 65.9251 30.7365H65.9084V30.7532C65.4908 31.5077 65.1177 32.3401 64.792 33.245C63.7229 36.1377 62.7763 39.0777 61.9522 42.0623C62.4756 41.3189 63.0686 40.6424 63.7284 40.0327C64.3911 39.4229 65.101 38.9329 65.8639 38.5599C66.6239 38.1868 67.4063 38.003 68.2081 38.003C68.8345 38.003 69.4247 38.1422 69.976 38.4207C70.5273 38.6991 70.9894 39.1362 71.3625 39.7264C71.6771 40.3083 71.833 40.9124 71.833 41.5389C71.833 42.4437 71.5936 43.3402 71.1175 44.2228C70.6414 45.1053 70.0901 45.8431 69.4609 46.4361C68.2888 47.5526 66.9163 48.2375 65.3488 48.4908C66.1395 49.1061 67.0917 49.4151 68.2053 49.4151C68.7398 49.4151 69.2633 49.3511 69.7728 49.223C71.0145 48.85 72.0446 48.1428 72.8576 47.096C73.6705 46.0491 74.3276 44.9411 74.8259 43.7689C74.954 43.5239 75.1155 43.4014 75.3132 43.4014C75.4886 43.4014 75.6528 43.4738 75.8087 43.6186C75.9646 43.7634 76.0426 43.9416 76.0426 44.1504C76.0426 44.2422 76.0203 44.3369 75.973 44.4288C75.5554 45.381 75.0904 46.3053 74.5781 47.199C73.6956 48.8249 72.6488 50.3367 71.4404 51.7287C70.9866 52.241 70.5022 52.706 69.9844 53.1236C69.4665 53.5412 68.9208 53.8753 68.3473 54.1259C67.771 54.3764 67.1585 54.5017 66.5098 54.5017V54.5156Z" fill="black"/>
<path d="M87.1568 54.5155C86.5165 54.5155 85.8789 54.354 85.2414 54.0283C84.5565 53.6552 84.0804 53.168 83.8131 52.5638C83.5458 51.9597 83.4122 51.3138 83.4122 50.6289C83.4122 50.1639 83.454 49.6934 83.5347 49.2173C83.0363 50.1695 82.4712 51.0827 81.8447 51.9541C81.299 52.7337 80.6754 53.3517 79.971 53.8111C79.2694 54.2705 78.4453 54.4988 77.5043 54.4988C76.7136 54.4988 75.9647 54.3067 75.2575 53.9225C74.5364 53.4937 73.9935 52.9146 73.6288 52.188C73.2641 51.4613 73.0803 50.704 73.0803 49.9134C73.0803 49.4261 73.1332 48.9361 73.2362 48.4406C73.342 47.9478 73.4617 47.4689 73.601 47.004C73.974 45.7483 74.4278 44.5205 74.968 43.3178C75.5081 42.115 76.0733 40.9346 76.6663 39.7708C76.8166 39.4701 76.9725 39.1722 77.1368 38.8827C77.3233 38.5569 77.6045 38.3286 77.9832 38.195C78.3618 38.0614 78.8045 37.9945 79.3168 37.9945C79.7706 37.9945 80.216 38.0697 80.6587 38.2201C81.0986 38.3704 81.3965 38.6488 81.5468 39.0553C81.5691 39.1138 81.583 39.1778 81.583 39.2474C81.583 39.4228 81.519 39.5731 81.3909 39.7012C81.2629 39.8181 81.1765 39.9518 81.1292 40.1021C80.6309 41.0905 80.2411 42.0761 79.9627 43.0644C79.5089 44.3535 79.1664 45.6787 78.9353 47.0374C78.8991 47.2239 78.8824 47.4271 78.8824 47.6471C78.8824 47.867 78.9103 48.0898 78.9687 48.3097C79.0272 48.5297 79.1302 48.7162 79.2833 48.8665C79.481 49.0308 79.701 49.1115 79.946 49.1115C80.1325 49.1115 80.319 49.0698 80.5028 48.989C81.1654 48.6883 81.7417 48.2206 82.2373 47.5858C82.7301 46.9538 83.1588 46.333 83.518 45.7288C84.4479 44.1948 85.2943 42.6106 86.0627 40.9708C86.1907 40.6812 86.3411 40.3193 86.5165 39.8905C86.6668 39.5063 86.8422 39.1527 87.0399 38.827C87.2376 38.5013 87.5383 38.2646 87.9447 38.1115C88.2705 38.0057 88.6241 37.9556 89.0083 37.9556C89.4621 37.9556 89.8964 38.0391 90.314 38.2089C90.7316 38.376 91.0295 38.6599 91.2022 39.0553C91.2244 39.1138 91.2383 39.1722 91.2383 39.2307C91.2383 39.381 91.1938 39.5063 91.1075 39.6065C91.0212 39.7068 90.9126 39.871 90.7845 40.1021C90.6565 40.3332 90.5451 40.5838 90.4532 40.851C90.2082 41.5248 89.9939 42.2041 89.8073 42.889C89.5735 43.6686 89.373 44.4203 89.1976 45.1469C89.0222 45.8736 88.9303 46.603 88.9192 47.3325C88.9192 47.6471 88.9637 47.9506 89.05 48.2485C89.1363 48.5436 89.3145 48.7858 89.5818 48.9723C89.9298 49.2034 90.3029 49.3203 90.6982 49.3203C91.2439 49.3203 91.7618 49.1589 92.249 48.8331C93.0508 48.2763 93.7051 47.5524 94.209 46.6643C94.7157 45.7762 95.1361 44.8769 95.473 43.972C95.5899 43.6352 95.8043 43.4681 96.1189 43.4681C96.2943 43.4681 96.4558 43.521 96.6061 43.624C96.7565 43.7298 96.8316 43.8746 96.8316 44.0584C96.8316 44.1642 96.8094 44.2616 96.762 44.3535C96.4252 45.2722 96.0243 46.1604 95.5593 47.0207C94.8382 48.4489 93.9807 49.7853 92.9812 51.0298C92.5274 51.5977 91.9928 52.149 91.3776 52.6752C90.7623 53.2042 90.0941 53.6413 89.373 53.9893C88.6519 54.3373 87.9141 54.5127 87.1596 54.5127L87.1568 54.5155Z" fill="black"/>
<path d="M35.208 64.5022C34.1166 64.5022 33.0614 64.2293 32.0452 63.6837C31.029 63.138 30.23 62.3946 29.6481 61.4536C28.9966 60.3149 28.5762 59.0732 28.3841 57.7256C28.192 56.3781 28.0862 55.0585 28.0611 53.7694C28.05 53.4325 28.0444 53.1012 28.0444 52.7755C28.0444 51.6952 28.0973 50.615 28.2003 49.5348C27.7243 47.3854 26.6719 45.5395 25.0459 43.9944C24.5337 44.9827 24.0353 45.9739 23.5481 46.9734C22.8521 48.3682 22.1783 49.7686 21.5268 51.1718C21.1315 52.021 20.7361 52.8618 20.3408 53.697C20.1069 54.2316 19.7728 54.6798 19.3301 55.039C18.7733 55.4454 18.197 55.6487 17.604 55.6487C16.9191 55.6487 16.2676 55.4343 15.6523 55.0028C15.037 54.574 14.5776 54.02 14.277 53.3462C14.2296 53.2543 14.2074 53.1541 14.2074 53.0511V52.9982C14.2074 52.8005 14.3132 52.614 14.522 52.4414C14.9758 52.1156 15.3878 51.7231 15.7581 51.2665C16.1284 50.8071 16.4792 50.3449 16.8022 49.88C17.604 48.7301 18.3696 47.5441 19.1018 46.3247C20.0206 44.8157 20.931 43.2928 21.8386 41.7587C20.4104 41.0738 18.9515 40.7314 17.4648 40.7314C16.9302 40.7314 16.4012 40.7843 15.8778 40.8873C14.4384 41.1657 13.3331 41.9341 12.5675 43.187C12.4283 43.432 12.3002 43.7271 12.1833 44.0751C12.0664 44.4231 12.0079 44.76 12.0079 45.0857C12.0079 45.3419 12.0497 45.573 12.1304 45.7818C12.2473 45.9683 12.3977 46.0741 12.5842 46.1047C12.7708 46.1326 12.9322 46.2356 13.0714 46.411C13.1299 46.5279 13.1577 46.6504 13.1577 46.7757C13.1577 46.9372 13.1188 47.1042 13.0436 47.2713C12.9684 47.4411 12.8905 47.5887 12.8069 47.7167C12.5174 48.1705 12.1415 48.5213 11.6822 48.7719C11.2228 49.0225 10.7328 49.1812 10.2094 49.2508C9.93095 49.287 9.65254 49.3037 9.37413 49.3037C8.38577 49.3037 7.47258 49.0559 6.62899 48.5631C5.7854 48.0703 5.18681 47.3242 4.82488 46.3247C4.67454 45.8597 4.59937 45.3948 4.59937 44.9298C4.59937 44.0361 4.81096 43.1647 5.23414 42.3155C5.65733 41.4664 6.1891 40.7369 6.82945 40.1189C7.73428 39.2836 8.77554 38.6628 9.94766 38.2619C11.1198 37.8609 12.3114 37.5909 13.5197 37.4517C14.3326 37.3598 15.1456 37.3125 15.9586 37.3125C17.7014 37.3125 19.4081 37.5909 21.0814 38.1477C21.872 38.4261 22.6321 38.7686 23.3643 39.1751C23.7123 38.5932 24.0604 38.0196 24.4112 37.4489C25.2464 36.054 26.129 34.701 27.0589 33.3896C27.6853 32.4598 28.4064 31.6078 29.2193 30.8283C30.3469 29.865 31.6053 29.3833 33.0002 29.3833C33.4178 29.3833 33.841 29.4251 34.2725 29.5058C34.5036 29.542 34.7764 29.6088 35.091 29.7063C35.4056 29.8037 35.6868 29.9401 35.9374 30.1155C36.188 30.2909 36.3133 30.5164 36.3133 30.7948C36.3133 30.9118 36.2854 31.0399 36.227 31.1791C36.0293 31.5382 35.8316 31.9001 35.6339 32.2593C35.066 33.6068 34.5955 35.0239 34.2224 36.5106C33.7797 38.195 33.4206 39.9045 33.1422 41.6418C32.8637 43.3791 32.7245 45.1191 32.7245 46.8592C32.7245 47.5803 32.7524 48.307 32.8108 49.0364C32.8693 49.9774 33.0113 50.9101 33.2368 51.8317C33.4623 52.756 33.8076 53.6302 34.2725 54.4543C34.8989 55.5457 35.7008 56.4923 36.678 57.2941C37.0622 57.631 37.4882 57.9233 37.9587 58.1739C38.4292 58.4244 38.9192 58.5497 39.4315 58.5497L39.657 58.533C39.8435 58.533 39.9911 58.6026 40.1025 58.7418C40.2138 58.881 40.2723 59.037 40.2862 59.2124C40.2973 59.3182 40.3029 59.4267 40.3029 59.5437C40.3029 60.7158 39.9382 61.7543 39.206 62.6535C38.4737 63.5528 37.5104 64.1319 36.3133 64.388C35.9402 64.4576 35.5699 64.4938 35.1968 64.4938L35.208 64.5022ZM28.8658 44.515C29.1804 42.5856 29.5339 40.6701 29.9293 38.7658C30.1854 37.5575 30.4527 36.3492 30.7311 35.1409C30.7534 35.0713 30.7896 34.971 30.8369 34.8374C30.8842 34.7038 30.9065 34.5952 30.9065 34.5144V34.4615H30.8703C30.8703 34.4615 30.8425 34.4671 30.8174 34.4782C30.4221 34.6063 30.1325 34.8569 29.946 35.2272C28.7015 37.2484 27.5238 39.3059 26.4074 41.3968C26.8139 41.781 27.1981 42.1875 27.5572 42.6162C28.0556 43.2204 28.4927 43.8524 28.863 44.515H28.8658Z" fill="white"/>
<path d="M47.9815 54.5156C47.1685 54.5156 46.4112 54.3152 45.7068 53.9143C45.0052 53.5134 44.4846 52.9176 44.1477 52.1269C43.9389 51.6146 43.7886 51.0689 43.6939 50.4898C43.602 49.9079 43.5547 49.3233 43.5547 48.7302C43.5547 48.4156 43.5658 48.1094 43.5909 47.8059V46.6728C43.5909 46.4751 43.6549 46.322 43.783 46.2106C43.9111 46.0993 44.067 46.0324 44.2535 46.0102C44.4735 45.9879 44.6489 45.974 44.7769 45.974C44.905 45.974 45.072 45.935 45.2836 45.8515C45.8182 45.6204 46.3054 45.2835 46.7481 44.8408C47.1908 44.3982 47.5666 43.9416 47.8812 43.4655C48.0316 43.2455 48.2014 42.9059 48.3879 42.4465C48.5745 41.9871 48.6663 41.5667 48.6663 41.1825C48.6663 40.9152 48.6051 40.7092 48.4826 40.5644C48.3601 40.4197 48.1596 40.3473 47.8812 40.3473C47.4385 40.3473 47.0209 40.4698 46.6256 40.712C46.2302 40.957 45.8711 41.2549 45.5453 41.6085C45.2196 41.9621 44.9356 42.3073 44.6906 42.6442C43.3765 44.5485 42.3659 46.606 41.6587 48.8138C41.4833 49.5237 41.3051 50.2921 41.1186 51.1218C40.9321 51.9515 40.8402 52.7617 40.8402 53.5523C40.8402 53.7862 40.7455 53.9672 40.5534 54.1008C40.3613 54.2345 40.1358 54.3319 39.8741 54.3876C39.6124 54.446 39.3702 54.4739 39.1502 54.4739C38.4653 54.4739 37.8194 54.2372 37.2153 53.7584C36.9257 53.5273 36.7169 53.26 36.5888 52.9565C36.4608 52.6559 36.3967 52.3357 36.3967 51.9988C36.3967 51.8123 36.4134 51.6202 36.4496 51.4225C36.8672 49.2147 37.3684 47.0208 37.9475 44.8353C38.9804 40.7231 40.1887 36.6583 41.5724 32.638C41.7116 32.2204 41.8647 31.7777 42.0346 31.3128C42.2016 30.8478 42.4188 30.4135 42.6805 30.007C42.9422 29.6006 43.2902 29.2693 43.7273 29.0131C44.1616 28.757 44.724 28.6289 45.4089 28.6289C45.9546 28.6289 46.4697 28.7458 46.9513 28.9769C47.433 29.208 47.6919 29.6117 47.7281 30.1797C47.7281 30.3885 47.6167 30.575 47.3968 30.7365H47.3801V30.7532C46.9625 31.5077 46.5894 32.3401 46.2636 33.245C45.1945 36.1377 44.2479 39.0777 43.4238 42.0623C43.9473 41.3189 44.5403 40.6424 45.2001 40.0327C45.8627 39.4229 46.5727 38.9329 47.3355 38.5599C48.0956 38.1868 48.8779 38.003 49.6798 38.003C50.3062 38.003 50.8964 38.1422 51.4477 38.4207C51.9989 38.6991 52.4611 39.1362 52.8342 39.7264C53.1488 40.3083 53.3047 40.9124 53.3047 41.5389C53.3047 42.4437 53.0653 43.3402 52.5892 44.2228C52.1131 45.1053 51.5618 45.8431 50.9326 46.4361C49.7605 47.5526 48.3879 48.2375 46.8205 48.4908C47.6112 49.1061 48.5633 49.4151 49.677 49.4151C50.2115 49.4151 50.7349 49.3511 51.2444 49.223C52.4862 48.85 53.5163 48.1428 54.3292 47.096C55.1422 46.0491 55.7993 44.9411 56.2976 43.7689C56.4257 43.5239 56.5872 43.4014 56.7848 43.4014C56.9602 43.4014 57.1245 43.4738 57.2804 43.6186C57.4363 43.7634 57.5143 43.9416 57.5143 44.1504C57.5143 44.2422 57.492 44.3369 57.4447 44.4288C57.0271 45.381 56.5621 46.3053 56.0498 47.199C55.1673 48.8249 54.1204 50.3367 52.9121 51.7287C52.4583 52.241 51.9739 52.706 51.456 53.1236C50.9382 53.5412 50.3925 53.8753 49.819 54.1259C49.2427 54.3764 48.6301 54.5017 47.9815 54.5017V54.5156Z" fill="white"/>
<path d="M65.7888 54.5156C64.9759 54.5156 64.2186 54.3152 63.5142 53.9143C62.8126 53.5134 62.292 52.9176 61.9551 52.1269C61.7463 51.6146 61.5959 51.0689 61.5013 50.4898C61.4094 49.9079 61.3621 49.3233 61.3621 48.7302C61.3621 48.4156 61.3732 48.1094 61.3983 47.8059V46.6728C61.3983 46.4751 61.4623 46.322 61.5904 46.2106C61.7184 46.0993 61.8744 46.0324 62.0609 46.0102C62.2808 45.9879 62.4562 45.974 62.5843 45.974C62.7124 45.974 62.8794 45.935 63.091 45.8515C63.6256 45.6204 64.1128 45.2835 64.5555 44.8408C64.9981 44.3982 65.374 43.9416 65.6886 43.4655C65.8389 43.2455 66.0088 42.9059 66.1953 42.4465C66.3818 41.9871 66.4737 41.5667 66.4737 41.1825C66.4737 40.9152 66.4125 40.7092 66.29 40.5644C66.1675 40.4197 65.967 40.3473 65.6886 40.3473C65.2459 40.3473 64.8283 40.4698 64.433 40.712C64.0376 40.957 63.6785 41.2549 63.3527 41.6085C63.027 41.9621 62.743 42.3073 62.498 42.6442C61.1839 44.5485 60.1733 46.606 59.4661 48.8138C59.2907 49.5237 59.1125 50.2921 58.926 51.1218C58.7394 51.9515 58.6476 52.7617 58.6476 53.5523C58.6476 53.7862 58.5529 53.9672 58.3608 54.1008C58.1687 54.2345 57.9432 54.3319 57.6815 54.3876C57.4198 54.446 57.1775 54.4739 56.9576 54.4739C56.2727 54.4739 55.6268 54.2372 55.0226 53.7584C54.7331 53.5273 54.5243 53.26 54.3962 52.9565C54.2681 52.6559 54.2041 52.3357 54.2041 51.9988C54.2041 51.8123 54.2208 51.6202 54.257 51.4225C54.6746 49.2147 55.1758 47.0208 55.7549 44.8353C56.7878 40.7231 57.9961 36.6583 59.3798 32.638C59.519 32.2204 59.6721 31.7777 59.8419 31.3128C60.009 30.8478 60.2262 30.4135 60.4879 30.007C60.7496 29.6006 61.0976 29.2693 61.5347 29.0131C61.969 28.757 62.5314 28.6289 63.2163 28.6289C63.762 28.6289 64.277 28.7458 64.7587 28.9769C65.2404 29.208 65.4993 29.6117 65.5355 30.1797C65.5355 30.3885 65.4241 30.575 65.2042 30.7365H65.1875V30.7532C64.7698 31.5077 64.3968 32.3401 64.071 33.245C63.0019 36.1377 62.0553 39.0777 61.2312 42.0623C61.7546 41.3189 62.3476 40.6424 63.0075 40.0327C63.6701 39.4229 64.3801 38.9329 65.1429 38.5599C65.903 38.1868 66.6853 38.003 67.4871 38.003C68.1136 38.003 68.7038 38.1422 69.2551 38.4207C69.8063 38.6991 70.2685 39.1362 70.6415 39.7264C70.9561 40.3083 71.1121 40.9124 71.1121 41.5389C71.1121 42.4437 70.8726 43.3402 70.3965 44.2228C69.9205 45.1053 69.3692 45.8431 68.74 46.4361C67.5679 47.5526 66.1953 48.2375 64.6278 48.4908C65.4185 49.1061 66.3707 49.4151 67.4844 49.4151C68.0189 49.4151 68.5423 49.3511 69.0518 49.223C70.2935 48.85 71.3237 48.1428 72.1366 47.096C72.9496 46.0491 73.6066 44.9411 74.105 43.7689C74.2331 43.5239 74.3945 43.4014 74.5922 43.4014C74.7676 43.4014 74.9319 43.4738 75.0878 43.6186C75.2437 43.7634 75.3216 43.9416 75.3216 44.1504C75.3216 44.2422 75.2994 44.3369 75.252 44.4288C74.8344 45.381 74.3695 46.3053 73.8572 47.199C72.9746 48.8249 71.9278 50.3367 70.7195 51.7287C70.2657 52.241 69.7812 52.706 69.2634 53.1236C68.7456 53.5412 68.1999 53.8753 67.6263 54.1259C67.05 54.3764 66.4375 54.5017 65.7888 54.5017V54.5156Z" fill="white"/>
<path d="M86.4386 54.5155C85.7982 54.5155 85.1607 54.354 84.5231 54.0283C83.8382 53.6552 83.3621 53.168 83.0948 52.5638C82.8276 51.9597 82.6939 51.3138 82.6939 50.6289C82.6939 50.1639 82.7357 49.6934 82.8164 49.2173C82.3181 50.1695 81.7529 51.0827 81.1265 51.9541C80.5808 52.7337 79.9571 53.3517 79.2528 53.8111C78.5512 54.2705 77.7271 54.4988 76.786 54.4988C75.9953 54.4988 75.2464 54.3067 74.5392 53.9225C73.8182 53.4937 73.2753 52.9146 72.9105 52.188C72.5458 51.4613 72.3621 50.704 72.3621 49.9134C72.3621 49.4261 72.415 48.9361 72.518 48.4406C72.6238 47.9478 72.7435 47.4689 72.8827 47.004C73.2558 45.7483 73.7096 44.5205 74.2497 43.3178C74.7898 42.115 75.355 40.9346 75.948 39.7708C76.0984 39.4701 76.2543 39.1722 76.4185 38.8827C76.6051 38.5569 76.8863 38.3286 77.2649 38.195C77.6435 38.0614 78.0862 37.9945 78.5985 37.9945C79.0523 37.9945 79.4978 38.0697 79.9404 38.2201C80.3803 38.3704 80.6782 38.6488 80.8286 39.0553C80.8508 39.1138 80.8648 39.1778 80.8648 39.2474C80.8648 39.4228 80.8007 39.5731 80.6727 39.7012C80.5446 39.8181 80.4583 39.9518 80.411 40.1021C79.9126 41.0905 79.5228 42.0761 79.2444 43.0644C78.7906 44.3535 78.4481 45.6787 78.2171 47.0374C78.1809 47.2239 78.1642 47.4271 78.1642 47.6471C78.1642 47.867 78.192 48.0898 78.2505 48.3097C78.3089 48.5297 78.412 48.7162 78.5651 48.8665C78.7628 49.0308 78.9827 49.1115 79.2277 49.1115C79.4142 49.1115 79.6008 49.0698 79.7845 48.989C80.4471 48.6883 81.0235 48.2206 81.519 47.5858C82.0118 46.9538 82.4406 46.333 82.7997 45.7288C83.7296 44.1948 84.576 42.6106 85.3444 40.9708C85.4725 40.6812 85.6228 40.3193 85.7982 39.8905C85.9486 39.5063 86.124 39.1527 86.3216 38.827C86.5193 38.5013 86.82 38.2646 87.2265 38.1115C87.5522 38.0057 87.9058 37.9556 88.29 37.9556C88.7438 37.9556 89.1781 38.0391 89.5958 38.2089C90.0134 38.376 90.3113 38.6599 90.4839 39.0553C90.5062 39.1138 90.5201 39.1722 90.5201 39.2307C90.5201 39.381 90.4755 39.5063 90.3892 39.6065C90.3029 39.7068 90.1943 39.871 90.0663 40.1021C89.9382 40.3332 89.8268 40.5838 89.735 40.851C89.49 41.5248 89.2756 42.2041 89.089 42.889C88.8552 43.6686 88.6547 44.4203 88.4793 45.1469C88.3039 45.8736 88.212 46.603 88.2009 47.3325C88.2009 47.6471 88.2455 47.9506 88.3318 48.2485C88.4181 48.5436 88.5963 48.7858 88.8635 48.9723C89.2115 49.2034 89.5846 49.3203 89.98 49.3203C90.5257 49.3203 91.0435 49.1589 91.5307 48.8331C92.3326 48.2763 92.9868 47.5524 93.4907 46.6643C93.9974 45.7762 94.4179 44.8769 94.7547 43.972C94.8717 43.6352 95.086 43.4681 95.4006 43.4681C95.576 43.4681 95.7375 43.521 95.8879 43.624C96.0382 43.7298 96.1134 43.8746 96.1134 44.0584C96.1134 44.1642 96.0911 44.2616 96.0438 44.3535C95.7069 45.2722 95.306 46.1604 94.841 47.0207C94.1199 48.4489 93.2624 49.7853 92.2629 51.0298C91.8091 51.5977 91.2746 52.149 90.6593 52.6752C90.044 53.2042 89.3758 53.6413 88.6547 53.9893C87.9336 54.3373 87.1959 54.5127 86.4414 54.5127L86.4386 54.5155Z" fill="white"/>
<path d="M33.7685 64.5022C32.6771 64.5022 31.622 64.2293 30.6058 63.6837C29.5896 63.138 28.7905 62.3946 28.2086 61.4536C27.5572 60.3149 27.1367 59.0732 26.9446 57.7256C26.7525 56.3781 26.6467 55.0585 26.6217 53.7694C26.6106 53.4325 26.605 53.1012 26.605 52.7755C26.605 51.6952 26.6579 50.615 26.7609 49.5348C26.2848 47.3854 25.2324 45.5395 23.6065 43.9944C23.0942 44.9827 22.5959 45.9739 22.1086 46.9734C21.4126 48.3682 20.7388 49.7686 20.0874 51.1718C19.692 52.021 19.2967 52.8618 18.9013 53.697C18.6675 54.2316 18.3334 54.6798 17.8907 55.039C17.3339 55.4454 16.7576 55.6487 16.1645 55.6487C15.4796 55.6487 14.8282 55.4343 14.2129 55.0028C13.5976 54.574 13.1382 54.02 12.8375 53.3462C12.7902 53.2543 12.7679 53.1541 12.7679 53.0511V52.9982C12.7679 52.8005 12.8737 52.614 13.0825 52.4414C13.5363 52.1156 13.9484 51.7231 14.3187 51.2665C14.689 50.8071 15.0398 50.3449 15.3627 49.88C16.1645 48.7301 16.9302 47.5441 17.6624 46.3247C18.5811 44.8157 19.4916 43.2928 20.3992 41.7587C18.9709 41.0738 17.512 40.7314 16.0253 40.7314C15.4908 40.7314 14.9618 40.7843 14.4384 40.8873C12.999 41.1657 11.8937 41.9341 11.1281 43.187C10.9889 43.432 10.8608 43.7271 10.7439 44.0751C10.6269 44.4231 10.5685 44.76 10.5685 45.0857C10.5685 45.3419 10.6102 45.573 10.691 45.7818C10.8079 45.9683 10.9582 46.0741 11.1448 46.1047C11.3313 46.1326 11.4928 46.2356 11.632 46.411C11.6905 46.5279 11.7183 46.6504 11.7183 46.7757C11.7183 46.9372 11.6793 47.1042 11.6041 47.2713C11.529 47.4411 11.451 47.5887 11.3675 47.7167C11.0779 48.1705 10.7021 48.5213 10.2427 48.7719C9.78333 49.0225 9.29333 49.1812 8.76991 49.2508C8.4915 49.287 8.21309 49.3037 7.93468 49.3037C6.94631 49.3037 6.03312 49.0559 5.18953 48.5631C4.34595 48.0703 3.74736 47.3242 3.38543 46.3247C3.23508 45.8597 3.15991 45.3948 3.15991 44.9298C3.15991 44.0361 3.37151 43.1647 3.79469 42.3155C4.21788 41.4664 4.74964 40.7369 5.38999 40.1189C6.29483 39.2836 7.33609 38.6628 8.50821 38.2619C9.68032 37.8609 10.8719 37.5909 12.0802 37.4517C12.8932 37.3598 13.7062 37.3125 14.5191 37.3125C16.262 37.3125 17.9686 37.5909 19.6419 38.1477C20.4326 38.4261 21.1927 38.7686 21.9249 39.1751C22.2729 38.5932 22.6209 38.0196 22.9717 37.4489C23.8069 36.054 24.6895 34.701 25.6194 33.3896C26.2458 32.4598 26.9669 31.6078 27.7799 30.8283C28.9074 29.865 30.1659 29.3833 31.5607 29.3833C31.9783 29.3833 32.4015 29.4251 32.8331 29.5058C33.0641 29.542 33.337 29.6088 33.6516 29.7063C33.9662 29.8037 34.2474 29.9401 34.498 30.1155C34.7485 30.2909 34.8738 30.5164 34.8738 30.7948C34.8738 30.9118 34.846 31.0399 34.7875 31.1791C34.5898 31.5382 34.3922 31.9001 34.1945 32.2593C33.6265 33.6068 33.156 35.0239 32.7829 36.5106C32.3403 38.195 31.9811 39.9045 31.7027 41.6418C31.4243 43.3791 31.2851 45.1191 31.2851 46.8592C31.2851 47.5803 31.3129 48.307 31.3714 49.0364C31.4299 49.9774 31.5719 50.9101 31.7974 51.8317C32.0229 52.756 32.3681 53.6302 32.8331 54.4543C33.4595 55.5457 34.2613 56.4923 35.2385 57.2941C35.6227 57.631 36.0487 57.9233 36.5192 58.1739C36.9897 58.4244 37.4798 58.5497 37.992 58.5497L38.2175 58.533C38.4041 58.533 38.5516 58.6026 38.663 58.7418C38.7744 58.881 38.8328 59.037 38.8468 59.2124C38.8579 59.3182 38.8635 59.4267 38.8635 59.5437C38.8635 60.7158 38.4987 61.7543 37.7665 62.6535C37.0343 63.5528 36.071 64.1319 34.8738 64.388C34.5007 64.4576 34.1305 64.4938 33.7574 64.4938L33.7685 64.5022ZM27.4263 44.515C27.7409 42.5856 28.0945 40.6701 28.4898 38.7658C28.746 37.5575 29.0132 36.3492 29.2917 35.1409C29.3139 35.0713 29.3501 34.971 29.3975 34.8374C29.4448 34.7038 29.4671 34.5952 29.4671 34.5144V34.4615H29.4309C29.4309 34.4615 29.403 34.4671 29.378 34.4782C28.9826 34.6063 28.6931 34.8569 28.5065 35.2272C27.262 37.2484 26.0844 39.3059 24.9679 41.3968C25.3744 41.781 25.7586 42.1875 26.1178 42.6162C26.6161 43.2204 27.0532 43.8524 27.4235 44.515H27.4263Z" fill="#993520"/>
<path d="M46.5393 54.5156C45.7263 54.5156 44.9691 54.3152 44.2647 53.9143C43.5631 53.5134 43.0425 52.9176 42.7056 52.1269C42.4968 51.6146 42.3464 51.0689 42.2518 50.4898C42.1599 49.9079 42.1126 49.3233 42.1126 48.7302C42.1126 48.4156 42.1237 48.1094 42.1488 47.8059V46.6728C42.1488 46.4751 42.2128 46.322 42.3409 46.2106C42.4689 46.0993 42.6248 46.0324 42.8114 46.0102C43.0313 45.9879 43.2067 45.974 43.3348 45.974C43.4629 45.974 43.6299 45.935 43.8415 45.8515C44.376 45.6204 44.8633 45.2835 45.3059 44.8408C45.7486 44.3982 46.1245 43.9416 46.4391 43.4655C46.5894 43.2455 46.7593 42.9059 46.9458 42.4465C47.1323 41.9871 47.2242 41.5667 47.2242 41.1825C47.2242 40.9152 47.163 40.7092 47.0405 40.5644C46.918 40.4197 46.7175 40.3473 46.4391 40.3473C45.9964 40.3473 45.5788 40.4698 45.1834 40.712C44.7881 40.957 44.4289 41.2549 44.1032 41.6085C43.7775 41.9621 43.4935 42.3073 43.2485 42.6442C41.9344 44.5485 40.9237 46.606 40.2166 48.8138C40.0412 49.5237 39.863 50.2921 39.6765 51.1218C39.4899 51.9515 39.398 52.7617 39.398 53.5523C39.398 53.7862 39.3034 53.9672 39.1113 54.1008C38.9192 54.2345 38.6937 54.3319 38.432 54.3876C38.1702 54.446 37.928 54.4739 37.7081 54.4739C37.0232 54.4739 36.3773 54.2372 35.7731 53.7584C35.4836 53.5273 35.2748 53.26 35.1467 52.9565C35.0186 52.6559 34.9546 52.3357 34.9546 51.9988C34.9546 51.8123 34.9713 51.6202 35.0075 51.4225C35.4251 49.2147 35.9262 47.0208 36.5053 44.8353C37.5383 40.7231 38.7466 36.6583 40.1303 32.638C40.2695 32.2204 40.4226 31.7777 40.5924 31.3128C40.7595 30.8478 40.9766 30.4135 41.2383 30.007C41.5001 29.6006 41.8481 29.2693 42.2852 29.0131C42.7195 28.757 43.2819 28.6289 43.9668 28.6289C44.5125 28.6289 45.0275 28.7458 45.5092 28.9769C45.9908 29.208 46.2498 29.6117 46.286 30.1797C46.286 30.3885 46.1746 30.575 45.9546 30.7365H45.9379V30.7532C45.5203 31.5077 45.1473 32.3401 44.8215 33.245C43.7524 36.1377 42.8058 39.0777 41.9817 42.0623C42.5051 41.3189 43.0981 40.6424 43.758 40.0327C44.4206 39.4229 45.1305 38.9329 45.8934 38.5599C46.6535 38.1868 47.4358 38.003 48.2376 38.003C48.864 38.003 49.4543 38.1422 50.0055 38.4207C50.5568 38.6991 51.019 39.1362 51.392 39.7264C51.7066 40.3083 51.8625 40.9124 51.8625 41.5389C51.8625 42.4437 51.6231 43.3402 51.147 44.2228C50.6709 45.1053 50.1197 45.8431 49.4905 46.4361C48.3184 47.5526 46.9458 48.2375 45.3783 48.4908C46.169 49.1061 47.1212 49.4151 48.2348 49.4151C48.7694 49.4151 49.2928 49.3511 49.8023 49.223C51.044 48.85 52.0741 48.1428 52.8871 47.096C53.7001 46.0491 54.3571 44.9411 54.8555 43.7689C54.9835 43.5239 55.145 43.4014 55.3427 43.4014C55.5181 43.4014 55.6824 43.4738 55.8383 43.6186C55.9942 43.7634 56.0721 43.9416 56.0721 44.1504C56.0721 44.2422 56.0499 44.3369 56.0025 44.4288C55.5849 45.381 55.12 46.3053 54.6077 47.199C53.7251 48.8249 52.6783 50.3367 51.47 51.7287C51.0162 52.241 50.5317 52.706 50.0139 53.1236C49.496 53.5412 48.9504 53.8753 48.3768 54.1259C47.8005 54.3764 47.188 54.5017 46.5393 54.5017V54.5156Z" fill="#993520"/>
<path d="M64.3494 54.5156C63.5364 54.5156 62.7791 54.3152 62.0747 53.9143C61.3731 53.5134 60.8525 52.9176 60.5156 52.1269C60.3068 51.6146 60.1565 51.0689 60.0618 50.4898C59.9699 49.9079 59.9226 49.3233 59.9226 48.7302C59.9226 48.4156 59.9338 48.1094 59.9588 47.8059V46.6728C59.9588 46.4751 60.0228 46.322 60.1509 46.2106C60.279 46.0993 60.4349 46.0324 60.6214 46.0102C60.8414 45.9879 61.0168 45.974 61.1448 45.974C61.2729 45.974 61.44 45.935 61.6516 45.8515C62.1861 45.6204 62.6733 45.2835 63.116 44.8408C63.5587 44.3982 63.9345 43.9416 64.2491 43.4655C64.3995 43.2455 64.5693 42.9059 64.7558 42.4465C64.9424 41.9871 65.0343 41.5667 65.0343 41.1825C65.0343 40.9152 64.973 40.7092 64.8505 40.5644C64.728 40.4197 64.5276 40.3473 64.2491 40.3473C63.8065 40.3473 63.3888 40.4698 62.9935 40.712C62.5982 40.957 62.239 41.2549 61.9133 41.6085C61.5875 41.9621 61.3035 42.3073 61.0585 42.6442C59.7444 44.5485 58.7338 46.606 58.0266 48.8138C57.8512 49.5237 57.673 50.2921 57.4865 51.1218C57.3 51.9515 57.2081 52.7617 57.2081 53.5523C57.2081 53.7862 57.1134 53.9672 56.9213 54.1008C56.7292 54.2345 56.5037 54.3319 56.242 54.3876C55.9803 54.446 55.7381 54.4739 55.5181 54.4739C54.8332 54.4739 54.1873 54.2372 53.5832 53.7584C53.2936 53.5273 53.0848 53.26 52.9568 52.9565C52.8287 52.6559 52.7646 52.3357 52.7646 51.9988C52.7646 51.8123 52.7814 51.6202 52.8175 51.4225C53.2352 49.2147 53.7363 47.0208 54.3154 44.8353C55.3483 40.7231 56.5566 36.6583 57.9403 32.638C58.0795 32.2204 58.2327 31.7777 58.4025 31.3128C58.5695 30.8478 58.7867 30.4135 59.0484 30.007C59.3101 29.6006 59.6581 29.2693 60.0952 29.0131C60.5296 28.757 61.0919 28.6289 61.7768 28.6289C62.3225 28.6289 62.8376 28.7458 63.3192 28.9769C63.8009 29.208 64.0598 29.6117 64.096 30.1797C64.096 30.3885 63.9846 30.575 63.7647 30.7365H63.748V30.7532C63.3304 31.5077 62.9573 32.3401 62.6316 33.245C61.5625 36.1377 60.6159 39.0777 59.7918 42.0623C60.3152 41.3189 60.9082 40.6424 61.568 40.0327C62.2307 39.4229 62.9406 38.9329 63.7035 38.5599C64.4635 38.1868 65.2459 38.003 66.0477 38.003C66.6741 38.003 67.2643 38.1422 67.8156 38.4207C68.3669 38.6991 68.829 39.1362 69.2021 39.7264C69.5167 40.3083 69.6726 40.9124 69.6726 41.5389C69.6726 42.4437 69.4332 43.3402 68.9571 44.2228C68.481 45.1053 67.9297 45.8431 67.3005 46.4361C66.1284 47.5526 64.7559 48.2375 63.1884 48.4908C63.9791 49.1061 64.9312 49.4151 66.0449 49.4151C66.5794 49.4151 67.1029 49.3511 67.6124 49.223C68.8541 48.85 69.8842 48.1428 70.6972 47.096C71.5101 46.0491 72.1672 44.9411 72.6655 43.7689C72.7936 43.5239 72.9551 43.4014 73.1528 43.4014C73.3282 43.4014 73.4924 43.4738 73.6483 43.6186C73.8042 43.7634 73.8822 43.9416 73.8822 44.1504C73.8822 44.2422 73.8599 44.3369 73.8126 44.4288C73.395 45.381 72.93 46.3053 72.4177 47.199C71.5352 48.8249 70.4884 50.3367 69.28 51.7287C68.8262 52.241 68.3418 52.706 67.8239 53.1236C67.3061 53.5412 66.7604 53.8753 66.1869 54.1259C65.6106 54.3764 64.9981 54.5017 64.3494 54.5017V54.5156Z" fill="#993520"/>
<path d="M84.9991 54.5155C84.3588 54.5155 83.7212 54.354 83.0836 54.0283C82.3988 53.6552 81.9227 53.168 81.6554 52.5638C81.3881 51.9597 81.2545 51.3138 81.2545 50.6289C81.2545 50.1639 81.2962 49.6934 81.377 49.2173C80.8786 50.1695 80.3134 51.0827 79.687 51.9541C79.1413 52.7337 78.5177 53.3517 77.8133 53.8111C77.1117 54.2705 76.2876 54.4988 75.3466 54.4988C74.5559 54.4988 73.807 54.3067 73.0998 53.9225C72.3787 53.4937 71.8358 52.9146 71.4711 52.188C71.1064 51.4613 70.9226 50.704 70.9226 49.9134C70.9226 49.4261 70.9755 48.9361 71.0785 48.4406C71.1843 47.9478 71.304 47.4689 71.4432 47.004C71.8163 45.7483 72.2701 44.5205 72.8102 43.3178C73.3504 42.115 73.9155 40.9346 74.5086 39.7708C74.6589 39.4701 74.8148 39.1722 74.9791 38.8827C75.1656 38.5569 75.4468 38.3286 75.8254 38.195C76.2041 38.0614 76.6468 37.9945 77.159 37.9945C77.6128 37.9945 78.0583 38.0697 78.501 38.2201C78.9409 38.3704 79.2388 38.6488 79.3891 39.0553C79.4114 39.1138 79.4253 39.1778 79.4253 39.2474C79.4253 39.4228 79.3613 39.5731 79.2332 39.7012C79.1051 39.8181 79.0188 39.9518 78.9715 40.1021C78.4731 41.0905 78.0834 42.0761 77.8049 43.0644C77.3511 44.3535 77.0087 45.6787 76.7776 47.0374C76.7414 47.2239 76.7247 47.4271 76.7247 47.6471C76.7247 47.867 76.7526 48.0898 76.811 48.3097C76.8695 48.5297 76.9725 48.7162 77.1256 48.8665C77.3233 49.0308 77.5432 49.1115 77.7882 49.1115C77.9748 49.1115 78.1613 49.0698 78.3451 48.989C79.0077 48.6883 79.584 48.2206 80.0796 47.5858C80.5724 46.9538 81.0011 46.333 81.3603 45.7288C82.2902 44.1948 83.1365 42.6106 83.905 40.9708C84.033 40.6812 84.1834 40.3193 84.3588 39.8905C84.5091 39.5063 84.6845 39.1527 84.8822 38.827C85.0799 38.5013 85.3805 38.2646 85.787 38.1115C86.1128 38.0057 86.4663 37.9556 86.8506 37.9556C87.3044 37.9556 87.7387 38.0391 88.1563 38.2089C88.5739 38.376 88.8718 38.6599 89.0444 39.0553C89.0667 39.1138 89.0806 39.1722 89.0806 39.2307C89.0806 39.381 89.0361 39.5063 88.9498 39.6065C88.8635 39.7068 88.7549 39.871 88.6268 40.1021C88.4987 40.3332 88.3874 40.5838 88.2955 40.851C88.0505 41.5248 87.8361 42.2041 87.6496 42.889C87.4157 43.6686 87.2153 44.4203 87.0399 45.1469C86.8645 45.8736 86.7726 46.603 86.7615 47.3325C86.7615 47.6471 86.806 47.9506 86.8923 48.2485C86.9786 48.5436 87.1568 48.7858 87.4241 48.9723C87.7721 49.2034 88.1452 49.3203 88.5405 49.3203C89.0862 49.3203 89.604 49.1589 90.0913 48.8331C90.8931 48.2763 91.5474 47.5524 92.0513 46.6643C92.558 45.7762 92.9784 44.8769 93.3153 43.972C93.4322 43.6352 93.6466 43.4681 93.9612 43.4681C94.1366 43.4681 94.2981 43.521 94.4484 43.624C94.5988 43.7298 94.6739 43.8746 94.6739 44.0584C94.6739 44.1642 94.6517 44.2616 94.6043 44.3535C94.2674 45.2722 93.8665 46.1604 93.4016 47.0207C92.6805 48.4489 91.823 49.7853 90.8235 51.0298C90.3697 51.5977 89.8351 52.149 89.2198 52.6752C88.6045 53.2042 87.9364 53.6413 87.2153 53.9893C86.4942 54.3373 85.7564 54.5127 85.0019 54.5127L84.9991 54.5155Z" fill="#993520"/>
<path d="M43.3904 70.4577C42.9868 71.6465 42.1487 72.7295 40.211 72.7295C38.4124 72.7295 37.5549 71.5824 37.5549 69.7811C37.5549 67.8183 38.6602 65.0063 41.3441 65.0063C43.1566 65.0063 43.8693 66.184 43.8387 67.4564H42.5998C42.5469 66.752 42.2768 66.0476 41.2077 66.0476C39.604 66.0476 38.8941 68.183 38.8941 69.6837C38.8941 70.9421 39.3423 71.6994 40.3585 71.6994C41.294 71.6994 41.7478 71.2233 42.093 70.4604H43.3904V70.4577Z" fill="white"/>
<path d="M40.211 72.8937C38.4181 72.8937 37.3879 71.7577 37.3879 69.7782C37.3879 67.7987 38.4626 64.8364 41.3442 64.8364C42.1961 64.8364 42.8671 65.0814 43.3376 65.5631C43.7886 66.0252 44.0253 66.6962 44.0058 67.4563V67.6178H42.4467L42.4355 67.4646C42.3687 66.596 41.9901 66.209 41.2105 66.209C39.7294 66.209 39.064 68.2386 39.064 69.678C39.064 70.9225 39.49 71.5267 40.3614 71.5267C41.2328 71.5267 41.6365 71.0701 41.9428 70.3852L41.9873 70.2877H43.6244L43.5492 70.5077C43.0146 72.0891 41.8899 72.8937 40.211 72.8937ZM41.3442 65.1705C38.7048 65.1705 37.722 67.9964 37.722 69.7782C37.722 71.0478 38.1536 72.5596 40.211 72.5596C41.6727 72.5596 42.6388 71.9248 43.1539 70.6218H42.2017C41.901 71.251 41.4361 71.8608 40.3614 71.8608C39.618 71.8608 38.7299 71.4821 38.7299 69.6808C38.7299 68.1022 39.4983 65.8777 41.2105 65.8777C42.1182 65.8777 42.636 66.351 42.7529 67.2864H43.6745C43.6578 66.6851 43.4573 66.1589 43.101 65.7969C42.6945 65.3821 42.1042 65.1705 41.347 65.1705H41.3442Z" fill="#231F20"/>
<path d="M46.0272 70.6218L45.011 72.618H43.6802C44.8857 70.271 46.0801 67.9407 47.5501 65.1064H49.2039L49.9973 72.618H48.7222L48.5051 70.6218H46.03H46.0272ZM48.4661 69.5527C48.3185 67.8906 48.1821 66.7574 48.1765 66.1171H48.1626C47.7923 66.9579 47.2188 68.1578 46.4977 69.5527H48.4661Z" fill="white"/>
<path d="M50.1811 72.7851H48.5691L48.3519 70.7889H46.1274L45.1112 72.7851H43.4045L43.9502 71.7216C45.0165 69.6446 46.0996 67.5343 47.3998 65.0285L47.4471 64.9395H49.3514L50.1783 72.7851H50.1811ZM48.8698 72.451H49.8108L49.0535 65.2708H47.6503C46.3696 67.7375 45.3005 69.8228 44.2481 71.8719L43.953 72.4482H44.9108L45.927 70.452H48.6526L48.8698 72.4482V72.451ZM48.6498 69.7198H46.2249L46.3501 69.4776C47.0128 68.1941 47.603 66.9774 48.0095 66.0531L48.054 65.9529H48.3269L48.3436 66.1171C48.3491 66.5403 48.4104 67.1835 48.4967 68.0716C48.5385 68.5059 48.5858 68.9931 48.6331 69.5388L48.6498 69.7198ZM46.7705 69.3857H48.2851C48.2433 68.9124 48.2016 68.4864 48.1654 68.1022C48.1153 67.5816 48.0735 67.1445 48.0457 66.7825C47.6921 67.5482 47.255 68.4447 46.7733 69.3829L46.7705 69.3857Z" fill="#231F20"/>
<path d="M52.489 65.1064H57.0188L56.7877 66.1755H53.5191L53.082 68.2497H56.1557L55.9246 69.3021H52.8509L52.1577 72.618H50.8965L52.489 65.1064Z" fill="white"/>
<path d="M52.2942 72.7851H50.6934L52.3555 64.9395H57.2277L56.9242 66.3399H53.6557L53.2909 68.0827H56.3646L56.0584 69.4692H52.9875L52.2942 72.7851ZM51.1026 72.451H52.0214L52.7146 69.1351H55.7883L55.947 68.414H52.8761L53.3828 66.0058H56.6514L56.8101 65.2708H52.6228L51.1026 72.451Z" fill="#231F20"/>
<path d="M61.7379 69.2297H58.589L58.099 71.5572H61.7991L61.4177 72.618H56.6262L58.2187 65.1064H62.7569L62.5258 66.1755H59.2405L58.8145 68.1634H61.9634L61.7379 69.2325V69.2297Z" fill="white"/>
<path d="M61.5346 72.7851H56.4202L58.0823 64.9395H62.9628L62.6594 66.3399H59.3741L59.0205 67.9936H62.1666L61.8715 69.394H58.7226L58.3022 71.3903H62.033L61.5318 72.7851H61.5346ZM56.8322 72.451H61.3007L61.5624 71.7244H57.8958L58.4554 69.0627H61.6042L61.7573 68.3277H58.6085L59.1041 66.0086H62.3893L62.548 65.2735H58.3523L56.8322 72.4538V72.451Z" fill="#231F20"/>
</g>
<defs>
<clipPath id="clip0_240_2823">
<rect width="100" height="100" fill="white"/>
</clipPath>
</defs>
</svg>
