<svg width="24" height="60" viewBox="0 0 24 60" fill="none" xmlns="http://www.w3.org/2000/svg">
<path d="M3.09375 49.7143H5.4375V32.7857H3.09375C1.7993 32.7857 0.75 31.7364 0.75 30.4419V24.8438C0.75 23.5493 1.7993 22.5 3.09375 22.5H16.2188C17.5132 22.5 18.5625 23.5493 18.5625 24.8438V49.7143H20.9062C22.2007 49.7143 23.25 50.7636 23.25 52.0581V57.6562C23.25 58.9507 22.2007 60 20.9062 60H3.09375C1.7993 60 0.75 58.9507 0.75 57.6562V52.0581C0.75 50.7636 1.7993 49.7143 3.09375 49.7143ZM12 0C7.34004 0 3.5625 3.77754 3.5625 8.4375C3.5625 13.0975 7.34004 16.875 12 16.875C16.66 16.875 20.4375 13.0975 20.4375 8.4375C20.4375 3.77754 16.6598 0 12 0Z" fill="white"/>
</svg>
