<?xml version="1.0" encoding="UTF-8" standalone="no"?>
<svg
   width="384.24475pt"
   height="202.96666pt"
   viewBox="0 0 384.24475 202.96666"
   version="1.1"
   id="svg15"
   sodipodi:docname="Johnson's Baby.svg"
   inkscape:version="1.1 (c68e22c387, 2021-05-23)"
   xmlns:inkscape="http://www.inkscape.org/namespaces/inkscape"
   xmlns:sodipodi="http://sodipodi.sourceforge.net/DTD/sodipodi-0.dtd"
   xmlns="http://www.w3.org/2000/svg"
   xmlns:svg="http://www.w3.org/2000/svg"
   xmlns:rdf="http://www.w3.org/1999/02/22-rdf-syntax-ns#"
   xmlns:cc="http://creativecommons.org/ns#"
   xmlns:dc="http://purl.org/dc/elements/1.1/">
  <metadata
     id="metadata21">
    <rdf:RDF>
      <cc:Work
         rdf:about="">
        <dc:format>image/svg+xml</dc:format>
        <dc:type
           rdf:resource="http://purl.org/dc/dcmitype/StillImage" />
      </cc:Work>
    </rdf:RDF>
  </metadata>
  <defs
     id="defs19" />
  <sodipodi:namedview
     pagecolor="#ffffff"
     bordercolor="#666666"
     borderopacity="1"
     objecttolerance="10"
     gridtolerance="10"
     guidetolerance="10"
     inkscape:pageopacity="0"
     inkscape:pageshadow="2"
     inkscape:window-width="1366"
     inkscape:window-height="715"
     id="namedview17"
     showgrid="false"
     inkscape:zoom="0.10884534"
     inkscape:cx="-1327.5718"
     inkscape:cy="-1134.6375"
     inkscape:window-x="-8"
     inkscape:window-y="-8"
     inkscape:window-maximized="1"
     inkscape:current-layer="svg15"
     inkscape:pagecheckerboard="0"
     inkscape:document-units="pt" />
  <g
     id="surface1"
     transform="matrix(6.5857237,0,0,6.5857237,-53.199066,-94.532859)">
    <path
       style="fill:#0070ba;fill-opacity:1;fill-rule:evenodd;stroke:none"
       d="m 12.035156,27.273438 c 0.40625,-0.292969 0.449219,0.433593 0.5,0.738281 0.0625,0.386719 0.113282,0.753906 0.144532,1.148437 0.0625,0.832032 0.03516,1.664063 -0.101563,2.464844 -0.515625,3.027344 -2.980469,4.835938 -2.789062,1.34375 0.042968,-0.84375 0.226562,-1.476562 0.464843,-2.167969 0.28125,-0.804687 1.164063,-3.078125 1.78125,-3.527343 z m 31.195313,-1.359375 c 0.433594,-0.363282 1.058594,1.308593 0.339844,1.503906 -0.4375,0.113281 -0.730469,-0.210938 -0.710938,-0.605469 0.01563,-0.351562 0.175781,-0.734375 0.371094,-0.898437 z m 21.125,-0.214844 c 0.214844,0.230469 0.359375,0.722656 0.367187,1.109375 0.01953,1.238281 -1.300781,0.722656 -0.929687,-0.253906 0.09375,-0.253907 0.324219,-0.769532 0.5625,-0.855469 z m -12.625,-2.457031 c -0.402344,0.03125 -0.910156,0.07031 -1.199219,-0.132813 -0.242187,-0.171875 -0.472656,-0.664062 -0.171875,-0.933594 0.539063,-0.480468 1.351563,0.644532 1.371094,1.066407 z m -30.25,0.164062 c -0.679688,0.398438 -1.785156,-0.523437 -1.382813,-1.246094 0.433594,-0.777343 1.339844,0.710938 1.382813,1.246094 z m 4.9375,-8.3125 c 1.160156,-0.453125 -0.01563,4.59375 -0.714844,5.164063 -0.765625,0.621093 -0.417969,-2.449219 -0.386719,-2.808594 0.05859,-0.714844 0.398438,-2.078125 1.101563,-2.355469 z M 11.324219,26.488281 C 10.15625,25.175781 9.34375,22.6875 9.726563,20.410156 10,18.792969 11.023438,15.648438 12.878906,15.632813 c -0.660156,1.796875 -0.988281,2.699218 -1.101562,4.769531 -0.05078,0.960937 -0.03516,1.902344 0.02734,2.855469 l 0.269531,2.652343 c -0.183594,0.148438 -0.472656,0.550782 -0.75,0.578125 z m 2.617187,-2.496093 c -0.08594,0.08594 0.105469,0.0625 -0.125,0.07422 L 13.78125,23.875 c -0.0078,-0.597656 -0.246094,-1.589844 -0.320312,-2.265625 -0.195313,-1.710937 -0.285157,-3.128906 -0.01953,-4.847656 0.179688,-1.171875 0.433594,-1.558594 0.484375,-1.789063 0.01563,-0.07031 0.01953,-0.05078 0.01172,-0.125 -0.03516,-0.246093 0,-0.07422 -0.07031,-0.152343 -0.394532,-0.300782 -1.699219,0.316406 -2.023438,0.46875 -0.683594,0.320312 -1.128906,0.667968 -1.585937,1.066406 -2.070313,1.808594 -2.726563,5.421875 -1.707032,7.941406 0.28125,0.699219 0.601563,1.160156 1.035157,1.625 0.285156,0.304688 1.085937,1.070313 1.25,1.414063 -0.828125,1.789062 -1.496094,2.625 -2.078125,4.800781 -0.261719,0.984375 -0.585938,3.527344 0.78125,3.84375 0.546875,0.125 1.09375,-0.0039 1.503906,-0.214844 1.34375,-0.683594 2.242187,-2.847656 2.535156,-4.320312 0.574219,-2.902344 0.152344,-3.953125 0.253906,-6.507813 0.449219,-0.117187 0.308594,-0.238281 0.945313,-0.710937 0.25,-0.183594 0.699219,-0.53125 1.117187,-0.542969 0.05078,0.722656 -0.453125,2.046875 0.671875,3.617187 0.644532,0.90625 1.722657,1.429688 3.167969,0.992188 3.15625,-0.960938 2.132813,-3.574219 2.542969,-4.132813 0.08984,-0.128906 1.246094,-0.753906 1.445312,-0.761718 0.03125,1.164062 0.0039,2.367187 0.0039,3.535156 0,0.601562 -0.05859,1.207031 0.46875,1.359375 0.566406,0.164062 0.925781,-0.222656 1.117187,-0.59375 0.558594,-1.082031 1.097656,-2.699219 1.652344,-3.695313 0.203125,-0.363281 0.472656,-0.941406 0.835937,-0.96875 0.351563,0.226563 0.214844,1.195313 0.207032,1.695313 -0.01563,0.65625 -0.03516,1.300781 -0.02734,1.953125 0.0078,0.925781 -0.0625,1.992187 1.066406,1.601562 1.128906,-0.390625 2.960938,-4.65625 3.8125,-4.957031 0.234375,0.910156 0.08984,2.535156 0.08203,3.558594 -0.0039,0.621094 -0.144531,1.269531 0.488282,1.371094 1.109375,0.183593 1.515625,-0.992188 1.925781,-1.730469 0.3125,-0.5625 1.878906,-3.214844 2.28125,-3.214844 0.08203,0.441406 0.08203,2.765625 0.109375,3.429688 0.03125,0.621093 -0.07422,1.179687 0.347656,1.472656 0.550781,0.378906 0.976563,-0.05469 1.210938,-0.339844 0.496093,-0.609375 1.007812,-1.375 1.472656,-2.085937 0.230469,-0.355469 0.464844,-0.71875 0.710937,-1.089844 0.183594,-0.277344 0.503907,-0.878906 0.785157,-1.023438 L 43.125,24.855469 c -0.628906,0.265625 -1.355469,1.539062 -1.046875,2.5 0.347656,1.082031 1.921875,1.179687 2.519531,0.726562 0.671875,-0.507812 0.808594,-1.859375 0.554688,-2.902343 -0.140625,-0.574219 -0.5,-0.855469 -0.04297,-1.339844 0.226563,-0.242188 0.757813,-0.597656 1.230469,-0.652344 -0.1875,0.640625 -0.339844,0.910156 -0.308594,1.722656 0.02344,0.601563 0.136719,1.210938 0.355469,1.6875 0.828125,1.808594 3.863281,2.414063 5.289062,0.503907 0.683594,-0.910157 0.753907,-1.851563 0.886719,-3.175782 0.191406,-0.109375 1.058594,-0.640625 1.253906,-0.648437 0.117188,1.152344 0.08203,2.320312 0.167969,3.484375 0.03516,0.457031 -0.01563,1.25 0.347656,1.460937 0.574219,0.332032 0.90625,-0.261718 1.132813,-0.539062 0.859375,-1.070313 1.484375,-2.0625 2.238281,-3.269531 0.148438,-0.242188 0.558594,-1.023438 0.746094,-1.125 0.402344,0.636718 -0.253906,4.511718 0.554687,4.875 0.542969,0.242187 0.996094,-0.25 1.199219,-0.5 0.542969,-0.671875 1.03125,-1.367188 1.53125,-2.074219 C 61.980469,25.238281 63,23.695313 63.128906,23.398438 l 0.08984,-0.08203 0.04297,0.08984 c 0.152344,0.582031 0.597656,1.0625 0.742187,1.550781 -0.683593,0.726563 -1.734375,1.65625 -0.613281,3.019532 0.230469,0.285156 0.765625,0.339843 1.226563,0.253906 0.835937,-0.152344 1.429687,-0.648438 1.59375,-1.472656 0.207031,-1.050782 -0.222657,-1.726563 -0.613282,-2.402344 0.05469,-0.09375 1.28125,-1.371094 0.640625,-1.585938 -0.382812,-0.132812 -0.511718,0.507813 -0.980468,0.570313 -0.101563,-0.132813 -0.05469,-0.167969 -0.128907,-0.308594 L 64.585938,22.125 c -0.214844,-0.386719 -0.480469,-1.054687 -0.929688,-1.035156 -0.550781,0.175781 -2.6875,4.949219 -3.355469,5.023437 -0.285156,-0.539062 -0.171875,-3.441406 -0.203125,-4.363281 -0.01172,-0.328125 -0.09375,-0.445312 -0.316406,-0.582031 -0.507812,-0.308594 -0.964844,0.113281 -1.242187,0.375 -1.089844,1.023437 -2.332032,4.203125 -2.796875,4.496094 -0.308594,-0.339844 0.07031,-3.785157 -0.34375,-4.644532 -0.5625,-1.164062 -2.101563,1.664063 -2.796875,1.636719 C 52.46875,22.863281 52.496094,22.742188 52.421875,22.519531 52.257813,22.03125 51.9375,21.640625 51.464844,21.375 c -0.640625,-0.363281 -1.707031,-0.351562 -2.078125,0.183594 -0.488281,0.707031 -0.148438,1.640625 0.335937,2.054687 0.582032,0.496094 1.3125,0.664063 2.152344,0.511719 0.07422,1.875 -2.03125,3.671875 -3.542969,2.234375 -0.824218,-0.785156 -1.066406,-2.757812 -0.402343,-3.90625 0.304687,-0.523437 0.667968,-0.785156 0.726562,-1.074219 -2.726562,0.148438 -3.699219,1.667969 -4.179687,1.9375 -0.757813,-0.414062 -1.023438,-2.25 -1.605469,-2.179687 -0.6875,0.08203 -2.828125,4.894531 -3.351563,5.066406 -0.261718,-0.953125 0.289063,-4.464844 -0.542968,-4.960937 -0.507813,-0.304688 -1.074219,0.128906 -1.316407,0.355468 -0.90625,0.84375 -1.8125,2.75 -2.53125,3.929688 -0.125,0.203125 -0.222656,0.457031 -0.511718,0.433594 -0.25,-0.867188 -0.113282,-3.257813 -0.167969,-4.410157 -0.03906,-0.761718 -1.359375,-0.441406 -1.726563,0.117188 -0.238281,0.363281 -0.445312,0.738281 -0.691406,1.113281 -0.257812,0.386719 -0.460937,0.746094 -0.722656,1.125 -0.269531,0.390625 -1.296875,1.925781 -1.589844,2.054688 -0.02734,-1.164063 -0.03516,-2.242188 0,-3.40625 0.03906,-1.152344 -0.65625,-1.90625 -1.726562,-1.3125 -0.941407,0.527343 -1.875,2.503906 -2.316407,3.648437 -0.136718,0.351563 -0.164062,0.523438 -0.292968,0.644531 -0.02734,-1.117187 -0.08203,-2.203125 -0.06641,-3.332031 0.0078,-0.488281 0.01563,-0.378906 0.628907,-1.054687 0.273437,-0.296875 0.542968,-0.667969 0.738281,-1.015625 0.699219,-1.25 1.472656,-4.785157 0.507812,-5.582032 -0.867187,-0.710937 -3.105468,0.542969 -3.316406,3.171875 -0.09375,1.132813 0.01953,2.28125 -0.07031,3.378907 -0.03125,0.402343 -0.121094,1.128906 -0.367188,1.347656 -0.230469,0.207031 -0.878906,0.496094 -1.261719,0.527344 -0.332031,-1.621094 -2.195312,-2.59375 -3,-1.332032 -0.726562,1.144532 0.101563,2.121094 1.085938,2.488282 0.539062,0.203125 0.949219,0.03906 1.261719,0.140625 0.332031,0.667968 -0.335938,1.738281 -1.035157,2.1875 -0.828125,0.535156 -1.882812,0.464843 -2.480468,-0.175782 C 17.5,25.738281 17.191406,24.726563 17.316406,23.683594 c 0.152344,-1.253906 0.542969,-1.53125 1.085938,-2.289063 -1.894531,0.21875 -3.460938,1.59375 -4.460938,2.597657"
       id="path2" />
    <path
       style="fill:#0070ba;fill-opacity:1;fill-rule:evenodd;stroke:none"
       d="m 27.722656,39.179688 c -0.164062,0.957031 -0.742187,1.871093 -1.273437,2.304687 -0.542969,0.4375 -1.945313,0.496094 -1.386719,-1.433594 0.246094,-0.851562 0.820313,-1.667968 1.363281,-2.195312 1.164063,-1.128906 1.527344,0.0078 1.296875,1.324219 z m -3.625,-6.054688 -0.105468,0.476563 c 1.140625,-0.167969 1.148437,-0.01953 0.894531,0.761718 -0.421875,1.285157 -1.039063,3.710938 -1.433594,5.078125 -0.285156,0.988282 -0.695312,2.285157 0.230469,2.757813 0.882812,0.445312 2.3125,0.277344 3.183594,-0.09375 0.863281,-0.367188 1.503906,-1.015625 1.984375,-1.722656 1.789062,-2.605469 0.523437,-6.289063 -2.1875,-3.539063 -0.203125,0.207031 -0.25,0.265625 -0.488282,0.464844 -0.167968,0.140625 -0.332031,0.375 -0.464843,0.460937 0.167968,-0.859375 0.609375,-2 0.898437,-2.835937 l 0.761719,-2.09375 c 0.175781,-0.417969 0.05469,-0.425781 -0.171875,-0.628906 -0.339844,0.0625 -1.125,0.613281 -3.101563,0.914062"
       id="path4" />
    <path
       style="fill:#0070ba;fill-opacity:1;fill-rule:evenodd;stroke:none"
       d="m 43.128906,39.230469 c -0.152343,0.816406 -0.765625,1.902344 -1.289062,2.273437 -0.304688,0.214844 -1.011719,0.367188 -1.324219,-0.01563 -0.273437,-0.339843 -0.148437,-1.105468 -0.01563,-1.527343 0.296875,-0.929688 0.863281,-1.625 1.394531,-2.160157 0.277344,-0.28125 0.871094,-0.664062 1.132813,-0.179687 0.191406,0.359375 0.175781,1.195312 0.101562,1.609375 z M 39.5,33.152344 39.390625,33.597656 c 0.746094,-0.05859 1.140625,-0.199218 1.011719,0.398438 l -0.722656,2.546875 c -0.261719,0.976562 -0.558594,1.960937 -0.820313,2.929687 -0.265625,0.96875 -0.730469,2.253907 0.28125,2.742188 0.878906,0.425781 2.359375,0.253906 3.183594,-0.128906 0.832031,-0.382813 1.476562,-1.011719 1.964844,-1.742188 1.589843,-2.375 0.644531,-5.21875 -1.15625,-4.308594 -0.566407,0.285157 -1.078125,0.828125 -1.535157,1.269532 -0.136718,0.128906 -0.3125,0.367187 -0.46875,0.46875 0.109375,-0.746094 0.589844,-1.9375 0.832032,-2.65625 0.152343,-0.464844 0.90625,-2.398438 0.914062,-2.648438 l -0.292969,-0.277344 c -0.808593,0.332032 -0.476562,0.28125 -1.457031,0.574219 -0.460937,0.136719 -1.234375,0.230469 -1.625,0.386719"
       id="path6" />
    <path
       style="fill:#0070ba;fill-opacity:1;fill-rule:evenodd;stroke:none"
       d="m 35.015625,36.277344 c 0.328125,-0.105469 0.703125,-0.01953 0.898438,0.144531 0.53125,0.441406 -0.613282,1.941406 -0.839844,2.269531 -0.550781,0.785157 -1.378906,1.96875 -2.136719,2.417969 -0.84375,0.503906 -1.054687,-0.164062 -0.863281,-0.960937 0.308594,-1.292969 1.632812,-3.464844 2.941406,-3.871094 z m 1.296875,-0.40625 c -0.433594,-0.128906 -0.828125,-0.558594 -2.082031,-0.125 -1.714844,0.589844 -3.152344,2.160156 -3.714844,4.046875 -0.445312,1.476562 0.07031,3.449219 1.835938,2.589844 0.484375,-0.238282 1.207031,-0.820313 1.457031,-1.097657 l 0.949219,-1.003906 c 0.105468,-0.125 0.183593,-0.234375 0.300781,-0.339844 -0.113281,0.5625 -0.972656,2.261719 -0.128906,2.570313 0.335937,0.121094 0.71875,0.07813 1.007812,-0.05469 0.542969,-0.253906 0.867188,-0.648437 1.21875,-1.082031 0.535156,-0.65625 0.960938,-0.921875 0.699219,-1.433594 -0.734375,-0.01953 -0.734375,1.160157 -1.519531,1.367188 -0.05078,-1.007813 1.53125,-4.566406 1.597656,-5.75 -0.371094,-0.08984 -0.5,-0.08984 -0.917969,-0.08984 -0.566406,-0.0039 -0.414062,0.08594 -0.703125,0.402344"
       id="path8" />
    <path
       style="fill:#0070ba;fill-opacity:1;fill-rule:evenodd;stroke:none"
       d="m 46.074219,38.230469 c 0.71875,-0.08984 0.734375,-1.285156 1.554687,-1.382813 0.75,0.738282 0.699219,4.816407 -0.152343,6.335938 -0.273438,0.484375 -0.753907,1.058594 -1.347657,1.152344 -0.355468,-0.316407 -0.738281,-0.585938 -1.304687,-0.644532 -0.757813,-0.08203 -1.019531,0.605469 -0.648438,1.046875 0.664063,0.804688 2.277344,0.34375 3.019532,-0.183593 1.214843,-0.863282 2.941406,-2.894532 3.933593,-4.078125 0.671875,-0.804688 2.222657,-2.636719 2.089844,-3.839844 -0.06641,-0.578125 -0.59375,-0.921875 -1.242187,-0.667969 -0.59375,0.230469 -0.382813,0.910156 -0.246094,1.464844 0.367187,1.484375 -0.785156,2.414062 -1.597656,3.296875 -0.175782,0.191406 -0.292969,0.308594 -0.5,0.488281 -0.04297,-0.09766 0.121093,-2.296875 0.113281,-2.691406 -0.01563,-0.835938 -0.09766,-1.914063 -0.59375,-2.375 -1.121094,-1.042969 -3.617188,0.992187 -3.078125,2.078125"
       id="path10" />
    <path
       style="fill:#0070ba;fill-opacity:1;fill-rule:evenodd;stroke:none"
       d="m 61.367188,21.238281 c 1.503906,0.03906 2.75,-4.253906 -0.214844,-3.941406 -1.042969,0.109375 -1.460938,1.339844 -0.878906,2.230469 0.457031,0.699219 1.1875,0.09766 1.429687,0.324219 0.25,0.238281 -0.308594,1.070312 -0.335937,1.386718"
       id="path12" />
  </g>
</svg>
