<svg width="300" height="100" viewBox="0 0 300 100" fill="none" xmlns="http://www.w3.org/2000/svg">
<g clip-path="url(#clip0_5_2)">
<path d="M77.74 29.51C77.38 32.33 75.41 35.42 73.61 37.61C70.45 41.46 66.49 44.35 62.2 46.79C59.01 48.6 55.73 50.18 52.35 51.49C50.71 52.13 49.05 52.7 47.37 53.21C44.91 53.96 42.4 54.57 39.83 55.04C36.68 55.61 33.47 55.91 30.29 56.34C28.59 56.57 26.85 56.67 25.19 57.05C21.16 57.98 18.52 60.63 16.79 64.28C15.56 66.89 14.84 69.67 14.6 72.52C14.33 75.59 13.49 78.76 14.17 81.76C14.46 83.04 18.28 83.34 19.98 82.48C21.99 81.46 17.05 79.23 17.43 77.88C18.11 75.5 20.31 74.12 22.42 72.92C23.85 72.1 25.35 71.47 26.89 70.99C28.47 70.5 30.1 70.16 31.76 69.93C35.02 69.48 38.25 69.4 41.44 69.71C37.55 70.52 33.1 72.29 28.13 74.91C27.41 75.15 26.7 75.43 26 75.76C24.79 76.33 23.69 77.05 22.89 78.17C22.65 78.5 22.57 78.76 22.89 79.13C24.12 80.52 25.39 82.11 24.61 83.74C23.9 85.25 21.54 86.96 14.88 86.27C12.62 86.03 12.3 85.9 11.06 85.53C9.74999 85.14 9.44999 84.57 9.44999 83.23C9.43999 78.12 9.68999 73.04 10.93 68.06C11.88 64.26 13.33 60.7 15.91 57.69C16.57 56.92 17.22 56.15 17.86 55.41C17.94 55.31 17.92 55.16 17.8 55.1C16.44 54.36 14.87 53.45 13.25 52.67C10.23 51.21 8.09999 48.9 6.56999 45.98C6.44999 45.75 6.32999 45.53 6.21999 45.3C6.12999 45.11 6.34999 44.92 6.51999 45.05C10.97 48.37 16.01 50.22 21.44 51.11C25.66 51.8 29.91 51.97 34.14 51.46C37.94 51 41.69 50.27 45.36 49.2C46.95 48.74 48.52 48.21 50.07 47.61C50.16 47.58 50.24 47.54 50.33 47.51C55.89 45.34 61.21 42.73 65.89 38.98C68.68 36.74 71.25 34.53 72.65 30.9C74.04 27.27 72.14 24.56 68.67 26.01C65.2 27.45 61.95 27.72 59.98 26.59C57.66 25.25 55.24 24.14 52.6 23.58C49.2 22.85 46.05 23.26 43.36 25.68C42.09 26.82 41.2 28.23 40.38 29.7C39.36 31.53 38.99 33.51 38.96 35.55C38.93 37.52 38.79 39.51 39.08 41.47C39.1 41.62 39.54 42.14 39.72 42.2C41.13 42.68 46.12 44.37 45.57 41.25C45.22 39.25 44.11 37.66 42.75 36.24C41.99 35.45 41.15 34.74 40.31 33.96C40.23 33.89 40.22 33.77 40.28 33.69C41.04 32.67 41.83 31.62 42.65 30.51C42.72 30.42 42.85 30.4 42.94 30.47C46.21 33.06 48.94 35.99 49.87 40.18C50.34 42.33 49.84 44.3 48.62 45.64C47.85 46.48 46.8 47.07 45.53 47.31C45.31 47.35 45.09 47.38 44.87 47.41C42.73 47.64 40.47 47.83 38.41 47.02C35.3 45.8 34.75 42.27 34.52 39.31C34.29 36.45 34.33 33.53 35.21 30.8C36.88 25.59 39.8 21.32 45.31 19.5C48.94 18.3 52.58 18.73 56.1 19.99C58.12 20.71 60.04 21.69 61.97 22.64C62.84 23.07 63.72 23.29 64.59 22.92C65.71 22.46 66.55 22.29 67.71 21.92C74.98 19.59 78.25 25.26 77.71 29.53L77.74 29.51Z" fill="#007CFF"/>
<path d="M68.42 79.25C67.67 79.51 66.92 79.68 65.99 79.68C63.9 79.68 60.95 78.85 55.2 76.46C51.63 74.97 49.13 73.78 47.64 73.07C47.13 72.83 46.73 72.63 46.45 72.51C43.71 71.29 40.36 71.14 36.44 71.96C32.55 72.77 28.1 74.54 23.13 77.16L21.42 73.49C21.58 73.41 21.74 73.32 21.9 73.24C27.82 70.17 33.16 68.34 37.76 67.8C41.61 67.35 45.05 67.8 48 69.11C48.32 69.26 48.75 69.46 49.28 69.71C50.74 70.41 53.18 71.57 56.66 73.02C64.39 76.23 66 76.15 67.19 75.74C68.31 75.35 69.46 74.54 70.27 73.56C71.03 72.64 71.21 71.93 71.14 71.67C71.07 71.41 69.59 70.9 68.87 70.66C67.03 70.03 64.52 69.18 61.91 67.16C59.76 65.51 57.97 63.39 56.57 60.88L59.85 59.07C61 61.13 62.46 62.86 64.2 64.2C66.32 65.83 68.41 66.54 70.08 67.12C72.09 67.81 74.18 68.52 74.76 70.71C75.63 74.02 72.13 77.94 68.42 79.24V79.25Z" fill="#007CFF"/>
<path d="M90.26 24.71C90.73 24.59 91.14 24.49 91.49 24.39C91.84 24.29 92.18 24.21 92.52 24.12C92.86 24.04 93.18 23.97 93.48 23.91C93.78 23.85 93.96 23.82 94.03 23.82C98.96 23.63 102.19 23.56 103.73 23.61C106.62 23.71 109.06 24.34 111.05 25.53C111.59 25.86 112.13 26.36 112.65 27.02C112.74 27.16 112.95 27.48 113.25 27.98C113.56 28.48 113.75 28.8 113.82 28.94C116.19 32.47 116.47 35.7 114.67 38.64C113.94 39.8 113.05 40.58 112.01 40.98C108.93 42.24 106.04 43.04 103.34 43.4C102.96 43.45 102.69 43.57 102.54 43.77C102.39 43.97 102.33 44.3 102.38 44.75C102.43 45.44 102.56 47.19 102.79 50.01C103.01 52.83 103.14 54.38 103.16 54.66C103.21 55.11 103.14 55.42 102.96 55.58C102.78 55.75 102.46 55.84 101.98 55.86C100.13 55.88 98.53 55.87 97.18 55.82C96.23 55.8 93.59 55.69 89.26 55.5C89.19 55.36 89.17 55.2 89.21 55.04C89.25 54.87 89.3 54.66 89.37 54.38C89.44 54.11 89.48 53.92 89.48 53.83C89.67 50.28 89.83 45.08 89.98 38.24C90 36.82 90.06 34.57 90.14 31.49C90.22 28.41 90.26 26.15 90.26 24.7V24.71ZM99.96 35.83C100.48 36 100.88 36.11 101.17 36.18C101.45 36.25 101.79 36.28 102.16 36.27C102.54 36.26 102.89 36.16 103.23 35.97C103.37 35.9 103.5 35.82 103.62 35.74C103.74 35.66 103.84 35.59 103.92 35.53C104 35.47 104.1 35.39 104.2 35.28C104.3 35.17 104.38 35.1 104.43 35.07C104.48 35.03 104.56 34.94 104.68 34.79C104.8 34.64 104.88 34.54 104.91 34.49C104.95 34.44 105.03 34.31 105.18 34.1C105.32 33.89 105.42 33.76 105.46 33.71C105.74 33.36 105.8 33.03 105.64 32.73C105.47 32.43 105.18 32.27 104.75 32.25C103.59 32.18 102.26 32.21 100.77 32.36C100.63 32.36 100.47 32.45 100.29 32.64C100.11 32.83 100.01 32.99 99.99 33.14C99.97 33.35 99.95 34.25 99.95 35.84L99.96 35.83Z" fill="#FF6B00"/>
<path d="M145.48 55.44C145.17 55.44 144.31 55.42 142.89 55.39C141.47 55.35 140.59 55.34 140.26 55.34C139.15 55.34 138.11 55.38 137.13 55.45C136.8 55.5 136.55 55.47 136.38 55.38C136.21 55.29 136.1 55.08 136.02 54.78C135.31 52.2 135.03 50.06 135.17 48.35C135.17 48.3 135.11 47.91 134.99 47.18C131.6 46.99 129.65 46.87 129.13 46.82C128.56 46.8 128.01 46.71 127.46 46.57C126.94 46.45 126.5 46.51 126.15 46.73C125.79 46.96 125.55 47.3 125.4 47.78C124.83 49.98 124.22 52.41 123.55 55.06C123.53 55.2 123.45 55.37 123.32 55.56C123.19 55.75 123.07 55.84 122.95 55.84C120.84 55.96 118.73 56.03 116.63 56.05C116.28 56.07 116.01 55.97 115.85 55.73C115.68 55.49 115.65 55.19 115.74 54.81C118.16 43.77 119.79 36.86 120.64 34.06C120.78 33.59 120.98 32.86 121.24 31.89C121.5 30.92 121.71 30.19 121.86 29.71C122.01 29.23 122.23 28.65 122.52 27.99C122.8 27.33 123.11 26.75 123.44 26.25C123.77 25.75 124.23 25.49 124.83 25.47C128.15 25.3 131.06 25.13 133.57 24.94C134.71 24.87 135.56 25 136.13 25.33C136.7 25.66 137.15 26.27 137.48 27.14C138.48 29.67 139.27 31.9 139.86 33.82C140.03 34.34 140.63 36.64 141.67 40.71L143.8 48.95C143.87 49.21 144.09 50.08 144.46 51.54C144.83 53 145.05 53.88 145.12 54.17C145.17 54.29 145.24 54.47 145.35 54.72C145.46 54.97 145.52 55.12 145.55 55.16C145.57 55.25 145.59 55.33 145.59 55.37C145.59 55.41 145.55 55.44 145.48 55.44ZM127.86 34.38C127.6 37.7 127.45 39.53 127.4 39.89C127.35 40.55 127.66 40.88 128.32 40.88C130.95 40.86 132.55 40.86 133.12 40.88C133.47 40.88 133.72 40.8 133.85 40.65C133.98 40.5 134.02 40.25 133.97 39.92C133.61 36.89 133.41 35.21 133.37 34.88C133.35 34.79 133.29 34.68 133.19 34.58C133.09 34.48 133 34.42 132.91 34.42C132.27 34.4 130.59 34.38 127.87 34.38H127.86Z" fill="#007CFF"/>
<path d="M149.58 26.33C150.03 26.33 150.69 26.38 151.55 26.49C152.41 26.6 153.07 26.65 153.52 26.65C154.3 26.65 155.09 26.58 155.9 26.44C156.3 26.37 156.59 26.4 156.75 26.55C156.91 26.7 157.03 26.95 157.11 27.33C157.3 28.37 157.97 32.09 159.13 38.48L159.45 38.59C159.52 38.4 159.75 37.87 160.14 36.99C160.53 36.11 160.8 35.46 160.94 35.04C161.03 34.73 161.31 33.77 161.76 32.16C162.21 30.55 162.51 29.56 162.65 29.18C162.89 28.45 163.32 27.38 163.96 25.98C164.08 25.72 164.3 25.58 164.64 25.55C166.58 25.43 168.11 25.38 169.22 25.41C169.36 25.41 169.52 25.5 169.68 25.68C169.85 25.86 169.94 26.02 169.96 26.16C170.1 26.85 170.36 28.18 170.72 30.16C171.09 32.14 171.43 33.8 171.75 35.15C172.07 36.5 172.41 37.68 172.76 38.7C172.81 38.58 173.02 38.1 173.4 37.26C173.78 36.42 174.03 35.79 174.15 35.36C174.41 34.53 175.01 32.34 175.96 28.79C176.01 28.62 176.08 28.29 176.17 27.8C176.26 27.3 176.36 26.89 176.45 26.57C176.54 26.25 176.66 26.01 176.8 25.84C177.01 25.6 177.33 25.46 177.76 25.41C178.19 25.36 178.76 25.37 179.48 25.43C180.2 25.49 180.66 25.52 180.85 25.52C181.09 25.52 181.51 25.51 182.13 25.48C182.75 25.46 183.22 25.44 183.57 25.44C183.92 25.44 184.3 25.48 184.72 25.56C185.15 25.64 185.48 25.77 185.72 25.93C185.86 26.03 185.83 26.58 185.61 27.6C184.62 32.24 183.76 36.09 183.05 39.14C183 39.33 182.56 40.99 181.74 44.11C180.89 47.43 180.4 49.45 180.28 50.18C179.95 51.96 179.12 53.02 177.79 53.38C176.72 53.66 174.98 54.07 172.57 54.59C172.4 54.66 172.03 54.64 171.43 54.52C171.22 54.47 170.93 54.27 170.58 53.92C170.39 53.73 170.14 53.4 169.82 52.94C169.5 52.48 169.29 52.18 169.2 52.03C169.13 51.94 168.61 51.06 167.64 49.4L167.32 49.36C166.63 52.06 166.27 53.57 166.22 53.91C166.15 54.22 166.05 54.44 165.94 54.57C165.82 54.7 165.62 54.75 165.34 54.73C164.75 54.73 164.22 54.81 163.74 54.98C162.67 55.41 161.1 55.55 159.02 55.41C158 55.36 157.29 55.34 156.89 55.34C155.99 55.34 155.2 55.4 154.51 55.52C153.37 55.73 152.61 55.19 152.24 53.89C151.62 51.71 151.21 50.09 151 49.02C149.48 41.75 148.35 36.08 147.59 32C147.52 31.62 147.47 31.17 147.43 30.63C147.39 30.1 147.36 29.49 147.34 28.82C147.32 28.14 147.29 27.64 147.27 27.31C147.86 26.65 148.63 26.32 149.58 26.32V26.33Z" fill="#FF6B00"/>
<path d="M191.4 24.65C191.87 24.53 192.28 24.43 192.63 24.33C192.97 24.24 193.32 24.15 193.66 24.06C194 23.98 194.32 23.91 194.62 23.85C194.92 23.79 195.1 23.76 195.17 23.76C200.1 23.57 203.33 23.5 204.87 23.55C207.76 23.65 210.2 24.28 212.19 25.47C212.73 25.8 213.27 26.3 213.79 26.96C213.88 27.1 214.09 27.42 214.39 27.92C214.7 28.42 214.89 28.74 214.96 28.88C217.33 32.41 217.61 35.64 215.81 38.58C215.08 39.74 214.19 40.52 213.15 40.92C210.07 42.18 207.18 42.98 204.48 43.34C204.1 43.39 203.83 43.51 203.68 43.71C203.53 43.91 203.47 44.24 203.52 44.69C203.57 45.38 203.7 47.13 203.93 49.95C204.15 52.77 204.28 54.32 204.3 54.6C204.35 55.05 204.28 55.36 204.1 55.52C203.92 55.69 203.6 55.78 203.12 55.8C201.27 55.82 199.67 55.81 198.32 55.76C197.37 55.74 194.73 55.63 190.4 55.44C190.33 55.3 190.31 55.14 190.35 54.98C190.39 54.81 190.44 54.6 190.51 54.32C190.58 54.04 190.62 53.86 190.62 53.77C190.81 50.22 190.98 45.02 191.12 38.18C191.14 36.76 191.2 34.51 191.28 31.43C191.36 28.35 191.4 26.09 191.4 24.64V24.65ZM201.1 35.77C201.62 35.94 202.02 36.05 202.31 36.12C202.59 36.19 202.93 36.22 203.31 36.21C203.69 36.2 204.04 36.1 204.38 35.91C204.52 35.84 204.65 35.76 204.77 35.68C204.89 35.6 204.99 35.53 205.07 35.47C205.15 35.41 205.25 35.33 205.35 35.22C205.46 35.11 205.53 35.04 205.58 35.01C205.63 34.97 205.71 34.88 205.83 34.73C205.95 34.58 206.03 34.48 206.06 34.43C206.1 34.38 206.18 34.25 206.33 34.04C206.47 33.83 206.57 33.7 206.61 33.65C206.89 33.3 206.95 32.97 206.79 32.67C206.62 32.37 206.33 32.21 205.9 32.19C204.74 32.12 203.41 32.15 201.92 32.3C201.78 32.3 201.62 32.39 201.44 32.58C201.26 32.77 201.16 32.93 201.14 33.08C201.12 33.29 201.1 34.19 201.1 35.78V35.77Z" fill="#007CFF"/>
<path d="M247.06 54.7C246.75 54.7 245.89 54.68 244.47 54.65C243.05 54.61 242.17 54.6 241.84 54.6C240.73 54.6 239.68 54.64 238.71 54.71C238.38 54.76 238.13 54.73 237.96 54.64C237.79 54.55 237.68 54.34 237.61 54.04C236.9 51.46 236.61 49.32 236.76 47.61C236.76 47.56 236.7 47.17 236.58 46.44C233.19 46.25 231.24 46.13 230.72 46.08C230.15 46.06 229.6 45.97 229.05 45.83C228.53 45.71 228.09 45.77 227.74 45.99C227.39 46.22 227.14 46.56 226.99 47.04C226.42 49.24 225.81 51.67 225.14 54.32C225.12 54.46 225.04 54.63 224.91 54.82C224.78 55.01 224.66 55.1 224.54 55.1C222.43 55.22 220.32 55.29 218.22 55.31C217.86 55.33 217.6 55.23 217.44 54.99C217.28 54.75 217.24 54.45 217.33 54.07C219.75 43.03 221.38 36.12 222.23 33.32C222.37 32.85 222.57 32.12 222.83 31.15C223.09 30.18 223.3 29.45 223.45 28.97C223.6 28.49 223.82 27.91 224.11 27.25C224.39 26.59 224.7 26.01 225.03 25.51C225.36 25.01 225.82 24.75 226.41 24.73C229.73 24.56 232.64 24.39 235.15 24.2C236.29 24.13 237.14 24.26 237.71 24.59C238.28 24.92 238.73 25.53 239.06 26.4C240.06 28.93 240.85 31.16 241.44 33.08C241.61 33.6 242.21 35.9 243.25 39.97L245.38 48.21C245.45 48.47 245.67 49.34 246.04 50.8C246.41 52.26 246.63 53.14 246.7 53.43C246.75 53.55 246.82 53.73 246.93 53.98C247.04 54.23 247.1 54.38 247.13 54.42C247.15 54.51 247.17 54.59 247.17 54.63C247.17 54.67 247.13 54.7 247.06 54.7ZM229.44 33.64C229.18 36.96 229.03 38.79 228.98 39.15C228.93 39.81 229.24 40.14 229.9 40.14C232.53 40.12 234.13 40.12 234.7 40.14C235.06 40.14 235.3 40.06 235.43 39.91C235.56 39.76 235.6 39.51 235.55 39.18C235.19 36.15 234.99 34.47 234.95 34.14C234.93 34.05 234.87 33.94 234.77 33.84C234.67 33.73 234.58 33.68 234.49 33.68C233.85 33.66 232.17 33.64 229.45 33.64H229.44Z" fill="#FF6B00"/>
<path d="M251.34 25.61C251.79 25.61 252.45 25.66 253.31 25.77C254.17 25.88 254.83 25.93 255.28 25.93C256.06 25.93 256.85 25.86 257.66 25.72C258.06 25.65 258.35 25.68 258.51 25.83C258.67 25.98 258.79 26.23 258.87 26.61C259.06 27.65 259.73 31.37 260.89 37.76L261.21 37.87C261.28 37.68 261.51 37.15 261.9 36.27C262.29 35.39 262.56 34.74 262.7 34.32C262.79 34.01 263.07 33.05 263.52 31.44C263.97 29.83 264.27 28.84 264.41 28.46C264.65 27.73 265.08 26.66 265.72 25.26C265.84 25 266.06 24.86 266.4 24.83C268.34 24.71 269.87 24.66 270.98 24.69C271.12 24.69 271.28 24.78 271.44 24.96C271.61 25.14 271.7 25.3 271.72 25.44C271.86 26.13 272.12 27.46 272.48 29.44C272.85 31.42 273.19 33.08 273.51 34.43C273.83 35.78 274.17 36.96 274.52 37.98C274.57 37.86 274.78 37.38 275.16 36.54C275.54 35.7 275.79 35.07 275.91 34.64C276.17 33.81 276.77 31.62 277.72 28.07C277.77 27.9 277.84 27.57 277.93 27.08C278.02 26.58 278.12 26.17 278.21 25.85C278.3 25.53 278.42 25.29 278.56 25.12C278.77 24.88 279.09 24.74 279.52 24.69C279.95 24.64 280.52 24.65 281.24 24.71C281.96 24.77 282.42 24.8 282.61 24.8C282.85 24.8 283.27 24.79 283.89 24.76C284.51 24.74 284.98 24.72 285.33 24.72C285.68 24.72 286.06 24.76 286.48 24.84C286.91 24.92 287.24 25.05 287.48 25.21C287.62 25.31 287.59 25.86 287.37 26.88C286.38 31.52 285.52 35.37 284.81 38.42C284.76 38.61 284.32 40.27 283.5 43.39C282.65 46.71 282.16 48.73 282.04 49.46C281.71 51.24 280.88 52.3 279.55 52.66C278.48 52.94 276.74 53.35 274.33 53.87C274.16 53.94 273.79 53.92 273.19 53.8C272.98 53.75 272.69 53.55 272.34 53.2C272.15 53.01 271.9 52.68 271.58 52.22C271.26 51.76 271.05 51.46 270.96 51.31C270.89 51.22 270.37 50.34 269.4 48.68L269.08 48.64C268.39 51.34 268.03 52.85 267.98 53.19C267.91 53.5 267.81 53.72 267.7 53.85C267.58 53.98 267.38 54.03 267.1 54.01C266.51 54.01 265.98 54.09 265.5 54.26C264.43 54.69 262.86 54.83 260.78 54.69C259.76 54.64 259.05 54.62 258.65 54.62C257.75 54.62 256.96 54.68 256.27 54.8C255.13 55.01 254.37 54.47 254 53.17C253.38 50.99 252.97 49.37 252.76 48.3C251.24 41.03 250.11 35.36 249.35 31.28C249.28 30.9 249.23 30.45 249.19 29.91C249.15 29.38 249.12 28.77 249.1 28.1C249.08 27.42 249.05 26.92 249.03 26.59C249.62 25.93 250.39 25.6 251.34 25.6V25.61Z" fill="#007CFF"/>
<path d="M205.61 76.54C205.46 76.54 205.02 76.54 204.31 76.51C203.6 76.48 203.16 76.48 202.99 76.48C202.43 76.48 201.91 76.5 201.43 76.53C201.26 76.55 201.14 76.54 201.06 76.49C200.98 76.44 200.92 76.34 200.88 76.19C200.52 74.9 200.38 73.83 200.45 72.97C200.45 72.95 200.42 72.75 200.36 72.38C198.67 72.29 197.69 72.23 197.43 72.2C197.14 72.19 196.87 72.15 196.59 72.08C196.33 72.02 196.11 72.05 195.93 72.16C195.75 72.27 195.63 72.45 195.56 72.68C195.28 73.78 194.97 75 194.64 76.32C194.63 76.39 194.59 76.47 194.52 76.57C194.45 76.66 194.39 76.71 194.33 76.71C193.28 76.77 192.22 76.8 191.17 76.82C190.99 76.83 190.86 76.78 190.78 76.66C190.7 76.54 190.68 76.39 190.73 76.2C191.94 70.68 192.76 67.22 193.18 65.82C193.25 65.58 193.35 65.22 193.48 64.74C193.61 64.25 193.71 63.89 193.79 63.65C193.87 63.41 193.98 63.12 194.12 62.79C194.26 62.46 194.42 62.17 194.58 61.92C194.74 61.67 194.98 61.54 195.27 61.53C196.93 61.45 198.39 61.36 199.64 61.26C200.21 61.22 200.64 61.29 200.92 61.46C201.2 61.63 201.43 61.93 201.6 62.37C202.1 63.64 202.49 64.75 202.79 65.71C202.87 65.97 203.18 67.12 203.7 69.16L204.77 73.28C204.81 73.41 204.91 73.84 205.1 74.58C205.28 75.31 205.39 75.75 205.43 75.9C205.45 75.96 205.49 76.05 205.55 76.18C205.61 76.31 205.64 76.38 205.65 76.4C205.66 76.45 205.67 76.48 205.67 76.51C205.67 76.54 205.65 76.55 205.62 76.55L205.61 76.54ZM196.79 66C196.66 67.66 196.58 68.58 196.56 68.76C196.54 69.09 196.69 69.26 197.02 69.26C198.34 69.25 199.14 69.25 199.42 69.26C199.6 69.26 199.72 69.22 199.79 69.14C199.85 69.06 199.88 68.94 199.85 68.78C199.67 67.26 199.57 66.42 199.55 66.26C199.54 66.21 199.51 66.16 199.46 66.11C199.41 66.06 199.37 66.03 199.32 66.03C199 66.02 198.16 66.01 196.8 66.01L196.79 66Z" fill="black"/>
<path d="M213.75 67.76C213.19 67.14 212.55 66.87 211.83 66.94C211.68 66.95 211.53 67 211.4 67.09C211.27 67.18 211.14 67.3 211 67.45C210.86 67.6 210.76 67.7 210.69 67.74C209.84 68.53 209.5 69.52 209.68 70.71C209.79 71.45 210.22 71.95 211 72.24C211.97 72.6 212.79 72.56 213.45 72.13C213.69 71.98 213.92 71.72 214.14 71.37C214.22 71.26 214.28 71.2 214.31 71.18C214.34 71.16 214.43 71.16 214.57 71.18C214.84 71.29 215.34 71.46 216.06 71.71C216.32 71.79 216.49 71.89 216.58 72.01C216.66 72.13 216.67 72.33 216.62 72.61C216.48 73.49 216.1 74.2 215.5 74.76C214.9 75.3 214.21 75.61 213.44 75.68C211.53 75.83 209.82 75.55 208.3 74.83C206.97 74.19 206.16 73.1 205.86 71.56C205.61 70.2 205.67 68.89 206.04 67.63C206.56 65.9 207.46 64.69 208.72 64C209.21 63.74 209.64 63.55 210.03 63.44C210.41 63.33 210.82 63.31 211.25 63.38C212.21 63.55 213.18 63.79 214.17 64.11C214.51 64.22 214.8 64.51 215.02 64.98C215.04 65.03 215.21 65.4 215.52 66.08L213.76 67.73L213.75 67.76Z" fill="black"/>
<path d="M227.3 76.2C227.24 76.2 227.18 76.18 227.12 76.13C227.06 76.08 227 76.03 226.93 75.96C226.87 75.89 226.82 75.85 226.8 75.83C225.67 76.28 224.69 76.49 223.85 76.45C222.57 76.39 221.47 76.14 220.56 75.69C219.59 75.22 219 74.39 218.8 73.2C218.6 72 218.61 70.76 218.84 69.47C219.01 68.52 219.52 67.69 220.39 66.96C221.34 66.17 222.43 65.78 223.68 65.8C224.69 65.82 225.45 66.11 225.96 66.67V66.42C225.94 66 225.98 65.74 226.08 65.64C226.16 65.55 226.38 65.47 226.72 65.42C227.06 65.37 227.4 65.34 227.72 65.34C227.95 65.34 228.19 65.34 228.44 65.37C228.69 65.39 228.98 65.41 229.3 65.44C229.62 65.47 229.84 65.49 229.97 65.5C230.24 65.52 230.43 65.59 230.52 65.69C230.61 65.79 230.66 65.98 230.66 66.25C230.66 66.64 230.66 67.11 230.66 67.65C230.66 68.19 230.67 68.59 230.68 68.83C230.68 69.07 230.68 69.37 230.68 69.72C230.68 70.07 230.66 70.39 230.64 70.68C230.62 70.97 230.6 71.3 230.56 71.67C230.48 72.44 230.44 72.94 230.44 73.16C230.44 73.66 230.35 74.35 230.16 75.24C230.1 75.51 230 75.71 229.85 75.84C229.7 75.96 229.48 76.04 229.18 76.08C228.27 76.16 227.64 76.2 227.3 76.2ZM223.16 70.07C222.78 70.27 222.54 70.61 222.44 71.1C222.34 71.59 222.44 72.02 222.75 72.4C222.99 72.67 223.22 72.85 223.44 72.92C223.67 73 224 72.98 224.44 72.88C224.72 72.77 224.93 72.6 225.04 72.35C225.15 72.12 225.21 71.99 225.23 71.94C225.25 71.89 225.27 71.81 225.31 71.69C225.35 71.57 225.37 71.47 225.37 71.4C225.37 71.33 225.37 71.23 225.37 71.12C225.37 71.01 225.33 70.92 225.28 70.84C225.16 70.6 224.97 70.35 224.69 70.08C224.49 69.91 224.24 69.84 223.96 69.85C223.68 69.86 223.41 69.94 223.16 70.08V70.07Z" fill="black"/>
<path d="M238.14 67.79L238.12 63.93C238.12 63.49 238.14 62.69 238.17 61.51C238.18 61.25 238.32 61.08 238.6 61.01C239.24 60.84 239.8 60.81 240.29 60.9C240.42 60.91 240.5 60.92 240.54 60.92C240.61 60.92 240.73 60.91 240.9 60.88C241.07 60.85 241.19 60.83 241.26 60.83C241.33 60.83 241.43 60.85 241.54 60.91C241.63 60.99 241.69 61.18 241.7 61.46C241.71 61.6 241.72 61.98 241.72 62.61V63.76C241.73 64.03 241.78 64.88 241.85 66.29C241.93 67.71 241.95 68.67 241.93 69.18C241.92 69.57 241.91 69.85 241.91 70.01C241.95 72.44 241.99 74.47 242.03 76.11C242.04 76.23 242.03 76.33 242 76.41C241.97 76.49 241.91 76.56 241.81 76.61C241.71 76.66 241.64 76.69 241.6 76.71C241.55 76.73 241.44 76.75 241.27 76.78C241.1 76.81 240.99 76.83 240.94 76.84C240.03 77.03 239.38 77.14 238.98 77.16C237.49 77.28 236.15 77.14 234.98 76.75C233.89 76.38 233.1 75.64 232.62 74.51C231.97 73.02 231.97 71.47 232.62 69.87C232.89 69.24 233.09 68.83 233.22 68.64C233.74 68 234.34 67.58 235.01 67.37C235.68 67.16 236.4 67.19 237.17 67.45C237.19 67.45 237.34 67.5 237.6 67.6C237.86 67.7 238.04 67.76 238.13 67.79H238.14ZM236.63 71.7C236.51 73.06 236.77 73.74 237.39 73.74H238.85C238.78 72.51 238.74 71.84 238.74 71.73C238.73 71.53 238.61 71.34 238.38 71.15C238.15 70.97 237.92 70.89 237.68 70.93C236.97 71.04 236.62 71.29 236.63 71.69V71.7Z" fill="black"/>
<path d="M255.85 72.54C255.27 72.54 253.47 72.5 250.45 72.43C250.44 72.43 250.33 72.44 250.13 72.47C250.17 73.04 250.43 73.45 250.93 73.7C251.43 73.95 252.02 74.01 252.71 73.88C252.8 73.86 252.9 73.79 253 73.68C253.1 73.57 253.16 73.47 253.19 73.38C253.26 73.17 253.4 73.06 253.62 73.06C254.58 73.02 255.34 73.01 255.9 73.02C255.95 73.03 256 73.08 256.07 73.17C256.14 73.26 256.16 73.33 256.15 73.39C256.08 74.4 255.91 75.13 255.63 75.59C255.36 76.05 254.84 76.46 254.08 76.8C253.95 76.87 253.84 76.91 253.74 76.91C253.59 76.92 253.03 77 252.07 77.14C251.11 77.28 250.38 77.31 249.87 77.23C248.59 77.03 247.54 76.64 246.72 76.07C245.9 75.49 245.32 74.69 244.98 73.64C244.96 73.53 244.9 73.38 244.82 73.17C244.74 72.96 244.67 72.77 244.63 72.58C244.59 72.4 244.57 72.2 244.59 72C244.88 69.96 245.5 68.42 246.47 67.36C247.7 66.03 249.16 65.36 250.84 65.33C251.15 65.32 251.84 65.37 252.92 65.47C253.58 65.54 254.19 65.97 254.75 66.75C254.82 66.83 254.91 66.95 255.01 67.1C255.11 67.25 255.18 67.35 255.22 67.4C255.26 67.45 255.31 67.53 255.38 67.64C255.45 67.75 255.51 67.84 255.55 67.92C255.59 68 255.64 68.09 255.7 68.21C255.76 68.33 255.82 68.46 255.88 68.6C256.06 69.02 256.17 69.49 256.21 70.01C256.25 70.54 256.25 71.09 256.21 71.65C256.2 71.96 256.19 72.17 256.17 72.27C256.17 72.32 256.13 72.37 256.05 72.43C255.97 72.49 255.91 72.52 255.86 72.52L255.85 72.54ZM249.75 70.3H252.01C252.44 70.26 252.69 70.2 252.76 70.1C252.83 70 252.85 69.74 252.79 69.32C252.79 69.24 252.75 69.15 252.68 69.06C252.61 68.97 252.54 68.91 252.47 68.87C252.41 68.83 251.96 68.67 251.12 68.37C250.8 68.25 250.51 68.34 250.25 68.64C249.91 69.04 249.74 69.59 249.75 70.29V70.3Z" fill="black"/>
<path d="M272.88 75.97C272.88 76.03 272.84 76.1 272.77 76.18C272.7 76.26 272.64 76.3 272.59 76.3C271.72 76.35 270.64 76.38 269.34 76.39C269.23 76.39 269.15 76.36 269.08 76.31C269.01 76.26 268.97 76.2 268.95 76.14C268.93 76.08 268.9 75.99 268.88 75.85C268.79 75.31 268.65 74.91 268.49 74.66C268.44 74.56 268.33 74.48 268.16 74.41C267.99 74.34 267.84 74.32 267.71 74.34C267.63 74.36 267.55 74.46 267.48 74.62C267.41 74.78 267.37 74.92 267.36 75.04C267.35 75.15 267.34 75.67 267.34 76.62H265.1C265.04 76.62 264.99 76.62 264.94 76.59C264.89 76.57 264.85 76.54 264.82 76.49C264.79 76.44 264.77 76.41 264.76 76.38C264.75 76.36 264.73 76.3 264.7 76.22C264.67 76.14 264.66 76.09 264.66 76.08C264.22 75.25 263.94 74.72 263.83 74.5C263.72 74.31 263.57 74.2 263.38 74.18C263.18 74.16 263 74.2 262.84 74.32C262.68 74.44 262.58 74.59 262.56 74.76C262.51 75.16 262.53 75.6 262.61 76.06C262.66 76.37 262.65 76.56 262.61 76.63C262.56 76.7 262.38 76.74 262.09 76.74C261.85 76.73 261.23 76.72 260.21 76.71C259.2 76.71 258.58 76.7 258.35 76.68C258.34 76.68 258.2 76.65 257.94 76.59V74.92C257.95 73.06 257.96 72.02 257.96 71.81C257.97 71.57 258.02 70.55 258.1 68.73C258.15 67.85 258.17 67.4 258.17 67.38C258.17 67.36 258.12 67.08 258.03 66.54L261.59 65.99V67.43C261.59 67.43 261.69 67.35 261.78 67.26C261.87 67.17 261.93 67.11 261.97 67.08C262.01 67.05 262.06 67 262.15 66.93C262.24 66.86 262.3 66.81 262.35 66.77C262.4 66.73 262.46 66.69 262.54 66.64C262.62 66.59 262.69 66.54 262.77 66.5C262.85 66.46 262.93 66.42 263.01 66.38C263.51 66.19 264 66.17 264.48 66.32C264.96 66.47 265.31 66.71 265.54 67.04C265.8 67.41 266.01 67.92 266.18 68.59C266.38 68.12 266.49 67.87 266.5 67.84C266.69 67.33 267.07 66.98 267.66 66.79C268.54 66.51 269.44 66.77 270.38 67.57C270.58 67.75 270.83 68.06 271.13 68.51C271.2 68.62 271.37 68.98 271.65 69.61C271.7 69.72 271.77 69.91 271.88 70.2L272.09 70.77C272.37 71.49 272.58 72.24 272.69 73C272.8 73.76 272.89 74.75 272.94 75.94L272.88 75.97Z" fill="black"/>
<path d="M277.02 72.27C277.02 72.27 277.02 72.15 277.04 72.03C277.05 71.91 277.06 71.83 277.06 71.81C277.06 71.61 276.62 70.81 275.74 69.41C275.53 69.07 275.35 68.79 275.22 68.58C275.09 68.37 274.97 68.16 274.85 67.95C274.73 67.74 274.65 67.59 274.6 67.49C274.55 67.39 274.49 67.25 274.4 67.06C274.32 66.88 274.26 66.74 274.22 66.65C274.18 66.56 274.12 66.38 274.01 66.12C273.9 65.86 273.82 65.63 273.75 65.44C274.2 65.4 274.44 65.39 274.46 65.39C274.9 65.39 275.92 65.37 277.54 65.32C277.82 65.31 278.02 65.43 278.13 65.69C278.22 65.93 278.47 66.54 278.88 67.53C279.28 68.52 279.56 69.21 279.7 69.6C280.29 68.97 280.77 68.24 281.12 67.4C281.23 67.15 281.5 66.49 281.94 65.41C282.05 65.15 282.24 65.03 282.51 65.04C283.07 65.06 283.98 65.09 285.25 65.11C285.43 65.11 285.56 65.16 285.63 65.25C285.7 65.34 285.7 65.48 285.63 65.64C285.07 66.92 284.64 67.85 284.32 68.42C284.01 68.99 283.52 69.77 282.85 70.76C282.59 71.14 282.43 71.61 282.39 72.18C282.38 72.27 282.35 72.53 282.31 72.94C282.27 73.35 282.23 73.79 282.19 74.27C282.15 74.75 282.13 75.01 282.13 75.04C282.11 75.47 282.09 76.02 282.09 76.71C282.09 76.72 282.07 76.86 282.04 77.12C279.29 77.11 277.71 77.1 277.29 77.1C277.04 77.1 276.88 77.06 276.82 76.99C276.76 76.92 276.74 76.76 276.78 76.51C277.03 74.95 277.11 73.54 277.03 72.28L277.02 72.27Z" fill="black"/>
</g>
<defs>
<clipPath id="clip0_5_2">
<rect width="300" height="100" fill="white"/>
</clipPath>
</defs>
</svg>
