<svg width="85" height="89" viewBox="0 0 85 89" fill="none" xmlns="http://www.w3.org/2000/svg">
<rect width="85" height="89" rx="18" fill="#E50914"/>
<path d="M34.6768 27.3555H39.3901L33.6958 62H28.9824L34.6768 27.3555ZM14.1724 48.3623H40.8018L40.0122 53.0518H13.3828L14.1724 48.3623ZM22.4746 27.3555H27.188L21.5176 62H16.7803L22.4746 27.3555ZM16.1582 36.3037H42.8115L42.022 40.9932H15.3926L16.1582 36.3037ZM46.0654 57.478L58.2915 45.7065C59.6313 44.3667 60.6681 43.2741 61.4019 42.4287C62.1356 41.5674 62.6938 40.714 63.0767 39.8687C63.4595 39.0233 63.6509 38.13 63.6509 37.189C63.6509 36.1522 63.3877 35.235 62.8613 34.4375C62.335 33.64 61.6252 33.0259 60.7319 32.5952C59.8387 32.1486 58.8179 31.9253 57.6694 31.9253C56.521 31.9253 55.5002 32.1646 54.6069 32.6431C53.7137 33.1056 53.0278 33.7756 52.5493 34.6528C52.0708 35.5301 51.8315 36.543 51.8315 37.6914H45.9219C45.9219 35.5381 46.4243 33.6479 47.4292 32.021C48.4341 30.3781 49.8298 29.11 51.6162 28.2168C53.4186 27.3236 55.4683 26.877 57.7651 26.877C60.0939 26.877 62.1515 27.3076 63.938 28.1689C65.7244 29.0303 67.1121 30.2186 68.1011 31.7339C69.106 33.2492 69.6084 34.9718 69.6084 36.9019C69.6084 38.2417 69.3532 39.5337 68.8428 40.7778C68.3324 42.022 67.4551 43.3937 66.2109 44.8931C64.9827 46.3924 63.2202 48.2267 60.9233 50.396L54.7505 56.521V56.7842H70.1348V62H46.0894L46.0654 57.478Z" fill="white"/>
</svg>
