<svg width="85" height="89" viewBox="0 0 85 89" fill="none" xmlns="http://www.w3.org/2000/svg">
<rect width="85" height="89" rx="18" fill="#E50914"/>
<path d="M34.6768 27.3555H39.3901L33.6958 62H28.9824L34.6768 27.3555ZM14.1724 48.3623H40.8018L40.0122 53.0518H13.3828L14.1724 48.3623ZM22.4746 27.3555H27.188L21.5176 62H16.7803L22.4746 27.3555ZM16.1582 36.3037H42.8115L42.022 40.9932H15.3926L16.1582 36.3037ZM58.6504 62.4785C56.21 62.4785 54.0247 62.0638 52.0947 61.2344C50.1647 60.4049 48.6494 59.2406 47.5488 57.7412C46.4642 56.2259 45.89 54.5112 45.8262 52.5972H52.1187C52.1825 53.4904 52.5015 54.2879 53.0757 54.9897C53.6499 55.6916 54.4235 56.2419 55.3965 56.6406C56.3695 57.0234 57.4461 57.2148 58.6265 57.2148C59.8866 57.2148 61.019 56.9995 62.0239 56.5688C63.0448 56.1222 63.8343 55.5161 64.3926 54.7505C64.9508 53.9689 65.222 53.0757 65.2061 52.0708C65.222 51.0021 64.9429 50.069 64.3687 49.2715C63.8104 48.458 62.981 47.828 61.8804 47.3813C60.7957 46.9188 59.5117 46.6875 58.0283 46.6875H54.9419V41.8784H58.0283C59.2565 41.8784 60.3411 41.6711 61.2822 41.2563C62.2393 40.8257 62.973 40.2275 63.4834 39.4619C64.0098 38.6963 64.2729 37.819 64.2729 36.8301C64.2729 35.8571 64.0417 35.0037 63.5791 34.27C63.1325 33.5203 62.4865 32.9461 61.6411 32.5474C60.8117 32.1326 59.8387 31.9253 58.7222 31.9253C57.6375 31.9253 56.6247 32.1247 55.6836 32.5234C54.7585 32.9062 54.0088 33.4565 53.4346 34.1743C52.8763 34.8761 52.5732 35.7135 52.5254 36.6865H46.52C46.5998 34.7725 47.174 33.0737 48.2427 31.5903C49.3273 30.1069 50.7868 28.9505 52.6211 28.1211C54.4554 27.2917 56.4971 26.877 58.7461 26.877C61.043 26.877 63.0607 27.2996 64.7993 28.145C66.5539 28.9904 67.9097 30.1468 68.8667 31.6143C69.8397 33.0658 70.3102 34.6847 70.2783 36.4712C70.3102 37.7313 70.063 38.8877 69.5366 39.9404C69.0103 40.9772 68.2606 41.8385 67.2876 42.5244C66.3146 43.2103 65.1981 43.6888 63.938 43.96V44.2231C65.5649 44.4305 66.9526 44.909 68.1011 45.6587C69.2495 46.3924 70.1268 47.3335 70.7329 48.4819C71.339 49.6144 71.6261 50.9144 71.5942 52.3818C71.6261 54.2799 71.0758 56.0026 69.9434 57.5498C68.8268 59.0811 67.2796 60.2853 65.3018 61.1626C63.3398 62.0399 61.1227 62.4785 58.6504 62.4785Z" fill="white"/>
</svg>
